<svg width="233" height="228" viewBox="0 0 233 228" fill="none" xmlns="http://www.w3.org/2000/svg">
<g id="Group">
<path id="Vector" d="M192.59 101.78L186.61 115.98L199.59 111.28L199.68 117.27L206.89 118.26" stroke="#FFB10A" stroke-width="3" stroke-miterlimit="10" stroke-linecap="round" stroke-linejoin="round"/>
<path id="Vector_2" d="M176.54 51.94L189.7 48.18" stroke="#273773" stroke-width="4" stroke-miterlimit="10" stroke-linecap="round" stroke-linejoin="round"/>
<path id="Vector_3" d="M185.94 74.5L200.04 70.74" stroke="#273773" stroke-width="4" stroke-miterlimit="10" stroke-linecap="round" stroke-linejoin="round"/>
<path id="Vector_4" d="M185.47 9.42999H176.08L171.38 17.78L176.08 26.13H185.47L190.16 17.78L185.47 9.42999Z" stroke="#FFB10A" stroke-width="3" stroke-miterlimit="10" stroke-linecap="round" stroke-linejoin="round"/>
<path id="Vector_5" d="M219.11 90.48L217.51 84.8L222.57 87.85L226.02 83.05L226.78 88.92L232.68 88.62L228.57 92.87L232.48 97.3L226.6 96.74L225.58 102.56L222.35 97.61L217.16 100.43L219.02 94.82L213.57 92.53L219.11 90.48Z" fill="#EF5A28"/>
<path id="Vector_6" d="M189.72 2.28003H172.16L163.38 17.48L172.16 32.69H189.72L198.49 17.48L189.72 2.28003Z" stroke="#FFB10A" stroke-width="3" stroke-miterlimit="10" stroke-linecap="round" stroke-linejoin="round"/>
<path id="Vector_7" d="M181.24 33.66C181.24 33.66 180.69 49.48 188.76 65.62C194.4 76.9 203.83 85.3 212.26 87.67" stroke="#FFB10A" stroke-width="3" stroke-miterlimit="10" stroke-linecap="round" stroke-linejoin="round"/>
<path id="Vector_8" d="M147.09 55.39L172.46 46.85C173.08 46.64 173.75 46.97 173.96 47.6L177.4 57.82C177.61 58.44 177.28 59.11 176.65 59.32L157.96 65.61" stroke="#273773" stroke-width="4" stroke-miterlimit="10" stroke-linecap="round" stroke-linejoin="round"/>
<path id="Vector_9" d="M166.07 76.51L181.04 69.87C181.64 69.6 182.34 69.87 182.61 70.47L186.98 80.33C187.25 80.93 186.98 81.63 186.38 81.9L169.66 89.31" stroke="#273773" stroke-width="4" stroke-miterlimit="10" stroke-linecap="round" stroke-linejoin="round"/>
<path id="Vector_10" d="M219.69 43.92L217.07 35.05C216.76 34.01 215.67 33.42 214.64 33.73L190.45 40.87C189.41 41.18 188.82 42.27 189.13 43.3L191.75 52.17C192.06 53.21 193.15 53.8 194.18 53.49L218.37 46.35C219.41 46.05 220 44.96 219.69 43.92Z" stroke="#273773" stroke-width="4" stroke-miterlimit="10" stroke-linecap="round" stroke-linejoin="round"/>
<path id="Vector_11" d="M229.76 66.23L227.14 57.36C226.83 56.32 225.74 55.73 224.71 56.04L200.52 63.18C199.48 63.49 198.89 64.58 199.2 65.61L201.82 74.48C202.13 75.52 203.22 76.11 204.25 75.8L228.44 68.66C229.47 68.35 230.06 67.27 229.76 66.23Z" stroke="#273773" stroke-width="4" stroke-miterlimit="10" stroke-linecap="round" stroke-linejoin="round"/>
<path id="Vector_12" d="M31.36 179.95L21.5601 170.89L49.15 145.38" stroke="#273773" stroke-width="4" stroke-miterlimit="10" stroke-linecap="round" stroke-linejoin="round"/>
<path id="Vector_13" d="M67.86 175.65L62.72 170.89L65 168.78L67.86 166.13" stroke="#273773" stroke-width="4" stroke-miterlimit="10" stroke-linecap="round" stroke-linejoin="round"/>
<path id="Vector_14" d="M16.42 166.13L21.5601 170.89L19.27 173L16.41 175.64C13.57 178.27 8.95999 178.27 6.11999 175.64C3.27999 173.01 3.27999 168.75 6.11999 166.13C8.96999 163.51 13.58 163.51 16.42 166.13Z" stroke="#273773" stroke-width="4" stroke-miterlimit="10" stroke-linecap="round" stroke-linejoin="round"/>
<path id="Vector_15" d="M41.58 148.36V137.63" stroke="#FFB10A" stroke-width="3" stroke-miterlimit="10" stroke-linecap="round" stroke-linejoin="round"/>
<path id="Vector_16" d="M41.58 190.09V200.83" stroke="#FFB10A" stroke-width="3" stroke-miterlimit="10" stroke-linecap="round" stroke-linejoin="round"/>
<path id="Vector_17" d="M50.53 223.56L43.0699 209.8C44.4099 209.2 45.28 207.72 44.92 206.09C44.65 204.88 43.68 203.91 42.47 203.66C40.36 203.21 38.51 204.81 38.51 206.83C38.51 208.15 39.3099 209.29 40.4399 209.8L32.98 223.56C32.52 224.65 33.32 225.87 34.51 225.87H49C50.19 225.87 50.99 224.66 50.53 223.56Z" stroke="#FFB10A" stroke-width="3" stroke-miterlimit="10" stroke-linecap="round" stroke-linejoin="round"/>
<path id="Vector_18" d="M41.76 136.53C36.63 136.53 32.48 132.37 32.48 127.25C32.48 124.9 33.35 122.75 34.8 121.11" stroke="#FFB10A" stroke-width="3" stroke-miterlimit="10" stroke-linecap="round" stroke-linejoin="round"/>
<path id="Vector_19" d="M60.09 154.3L52.4499 161.37L17.9 193.32C15.06 195.95 15.06 200.21 17.9 202.83C20.74 205.45 25.3499 205.46 28.1899 202.83L62.73 170.9L53.17 162.06" stroke="#273773" stroke-width="4" stroke-miterlimit="10" stroke-linecap="round" stroke-linejoin="round"/>
<path id="Vector_20" d="M48.4499 157.7L29.65 140.32C26.81 137.69 22.2 137.69 19.36 140.32C16.52 142.95 16.52 147.21 19.36 149.83L64.92 191.96C67.76 194.59 67.76 198.85 64.92 201.47C62.08 204.1 57.47 204.1 54.63 201.47L35.55 183.83" stroke="#273773" stroke-width="4" stroke-miterlimit="10" stroke-linecap="round" stroke-linejoin="round"/>
<path id="Vector_21" d="M35.05 90.13L26.5601 98.26L9.69995 81.4L42.1801 48.92L42.3199 69.06" stroke="#FFB10A" stroke-width="3" stroke-miterlimit="10" stroke-linecap="round" stroke-linejoin="round"/>
<path id="Vector_22" d="M17.71 89.62L11.9399 95.38" stroke="#FFB10A" stroke-width="3" stroke-miterlimit="10" stroke-linecap="round" stroke-linejoin="round"/>
<path id="Vector_23" d="M54.6801 60.26L38.65 44.24L70.25 37.62L67.64 50.06" stroke="#FFB10A" stroke-width="3" stroke-miterlimit="10" stroke-linecap="round" stroke-linejoin="round"/>
<path id="Vector_24" d="M141.74 2.57001L138.32 12.87L141.2 22.42L131.6 19.69L122.06 22.57L124.78 12.98L121.91 3.42999L131.5 6.15997L141.74 2.57001Z" stroke="#273773" stroke-width="4" stroke-miterlimit="10" stroke-linecap="round" stroke-linejoin="round"/>
<path id="Vector_25" d="M8.35999 13.63L14.52 17.9L22.01 18.17L17.74 24.33L17.47 31.82L11.3101 27.55L3.81995 27.28L8.08997 21.12L8.35999 13.63Z" stroke="#273773" stroke-width="4" stroke-miterlimit="10" stroke-linecap="round"/>
<path id="Vector_26" d="M74.88 4.53998L75.46 8.44L78.05 11.41L74.15 12L71.1801 14.59L70.6 10.69L68.01 7.71997L71.91 7.14001L74.88 4.53998Z" stroke="#273773" stroke-width="3" stroke-miterlimit="10" stroke-linecap="round"/>
<path id="Vector_27" d="M74.52 33.18L83.58 25.4" stroke="#FFB10A" stroke-width="3" stroke-miterlimit="10" stroke-linecap="round" stroke-linejoin="round"/>
<path id="Vector_28" d="M61.05 22.67L61.65 33.18" stroke="#FFB10A" stroke-width="3" stroke-miterlimit="10" stroke-linecap="round" stroke-linejoin="round"/>
<path id="Vector_29" d="M38.42 12.63L51.34 31.58" stroke="#FFB10A" stroke-width="3" stroke-miterlimit="10" stroke-linecap="round"/>
<path id="Vector_30" d="M26.6801 98.27V72.63" stroke="#FFB10A" stroke-width="3" stroke-miterlimit="10" stroke-linecap="round" stroke-linejoin="round"/>
<path id="Vector_31" d="M202.15 224.68H155.88C141.16 224.68 129.23 212.75 129.23 198.03V188.55C161.42 202.6 198.63 202.6 228.8 188.55V198.03C228.8 212.74 216.87 224.68 202.15 224.68Z" stroke="#273773" stroke-width="4" stroke-miterlimit="10" stroke-linecap="round" stroke-linejoin="round"/>
<path id="Vector_32" d="M161.33 197.01C162.51 186.99 169.85 179.28 178.73 179.28C187.61 179.28 194.94 186.99 196.13 197.01" stroke="#273773" stroke-width="4" stroke-miterlimit="10" stroke-linecap="round" stroke-linejoin="round"/>
<path id="Vector_33" d="M195.865 157.39C199.22 149.876 195.848 141.065 188.334 137.71C180.82 134.355 172.009 137.726 168.654 145.24C165.299 152.754 168.671 161.565 176.185 164.92C183.699 168.275 192.51 164.904 195.865 157.39Z" stroke="#FFB10A" stroke-width="3" stroke-miterlimit="10" stroke-linecap="round" stroke-linejoin="round"/>
<path id="Vector_34" d="M185.81 143.677L174.845 147.873L179.041 158.838L190.006 154.643L185.81 143.677Z" stroke="#FFB10A" stroke-width="3" stroke-miterlimit="10" stroke-linecap="round" stroke-linejoin="round"/>
<path id="Vector_35" d="M149.2 178.77C153.977 178.77 157.85 174.897 157.85 170.12C157.85 165.343 153.977 161.47 149.2 161.47C144.423 161.47 140.55 165.343 140.55 170.12C140.55 174.897 144.423 178.77 149.2 178.77Z" stroke="#FFB10A" stroke-width="3" stroke-miterlimit="10" stroke-linecap="round" stroke-linejoin="round"/>
<path id="Vector_36" d="M209.43 182.35C212.23 182.35 214.5 180.08 214.5 177.28C214.5 174.48 212.23 172.21 209.43 172.21C206.63 172.21 204.36 174.48 204.36 177.28C204.36 180.08 206.63 182.35 209.43 182.35Z" stroke="#FFB10A" stroke-width="3" stroke-miterlimit="10" stroke-linecap="round" stroke-linejoin="round"/>
<path id="Vector_37" d="M174.29 125.17C175.9 125 177.53 124.92 179.19 124.92C204.88 124.92 225.71 145.75 225.71 171.44C225.71 176.65 224.85 181.66 223.27 186.33" stroke="#273773" stroke-width="3" stroke-miterlimit="10" stroke-linecap="round" stroke-linejoin="round" stroke-dasharray="2.2 2.2"/>
<path id="Vector_38" d="M105.38 204.11C109.169 204.11 112.24 201.039 112.24 197.25C112.24 193.461 109.169 190.39 105.38 190.39C101.591 190.39 98.52 193.461 98.52 197.25C98.52 201.039 101.591 204.11 105.38 204.11Z" fill="#1B75BA"/>
<path id="Vector_39" d="M89.58 55.64V48.17C89.58 44.72 92.25 41.93 95.55 41.93H122.97C126.27 41.93 128.94 44.72 128.94 48.17V55.64H89.58Z" fill="#1B75BA"/>
<path id="Vector_40" d="M108.82 155.81H98.97C72.54 155.81 51.11 132.85 51.11 104.53C51.11 76.21 72.54 53.25 98.97 53.25H108.82C135.25 53.25 156.68 76.21 156.68 104.53C156.68 132.85 135.25 155.81 108.82 155.81Z" fill="#EF5A28"/>
<path id="Vector_41" d="M124.09 173.1H89.05C86.71 173.1 84.8101 171.2 84.8101 168.86V158C99.3101 161.66 113.82 161.75 128.34 158V168.86C128.34 171.2 126.44 173.1 124.09 173.1Z" fill="#1B75BA"/>
<path id="Vector_42" d="M83.54 54C88.15 52.93 92.99 52.37 97.98 52.37H109.8C141.52 52.37 167.23 75.33 167.23 103.65C167.23 131.97 141.52 154.93 109.8 154.93H97.98C66.26 154.93 40.55 131.97 40.55 103.65C40.55 85.59 51.0099 69.71 66.8199 60.57" stroke="#273773" stroke-width="4" stroke-miterlimit="10" stroke-linecap="round" stroke-linejoin="round"/>
<path id="Vector_43" d="M83.92 52.36V44.83C83.92 41.41 86.69 38.65 90.1 38.65H118.28C121.7 38.65 124.46 41.42 124.46 44.83V52.36" stroke="#273773" stroke-width="4" stroke-miterlimit="10" stroke-linecap="round" stroke-linejoin="round"/>
<path id="Vector_44" d="M80.34 153.72V162.44C80.34 165.86 83.11 168.62 86.52 168.62H119.47C122.89 168.62 125.65 165.85 125.65 162.44V160.87" stroke="#273773" stroke-width="4" stroke-miterlimit="10" stroke-linecap="round" stroke-linejoin="round"/>
<path id="Vector_45" d="M102.99 169.82V188.31" stroke="#273773" stroke-width="4" stroke-miterlimit="10" stroke-linecap="round" stroke-linejoin="round"/>
<path id="Vector_46" d="M92.86 169.82V179.36" stroke="#273773" stroke-width="4" stroke-miterlimit="10" stroke-linecap="round" stroke-linejoin="round"/>
<path id="Vector_47" d="M82.13 166.84V179.36" stroke="#273773" stroke-width="4" stroke-miterlimit="10" stroke-linecap="round" stroke-linejoin="round"/>
<path id="Vector_48" d="M124.46 166.84V179.36" stroke="#273773" stroke-width="4" stroke-miterlimit="10" stroke-linecap="round" stroke-linejoin="round"/>
<path id="Vector_49" d="M113.73 169.82V179.36" stroke="#273773" stroke-width="4" stroke-miterlimit="10" stroke-linecap="round" stroke-linejoin="round"/>
<path id="Vector_50" d="M103.29 202.62C107.079 202.62 110.15 199.549 110.15 195.76C110.15 191.971 107.079 188.9 103.29 188.9C99.5014 188.9 96.4301 191.971 96.4301 195.76C96.4301 199.549 99.5014 202.62 103.29 202.62Z" stroke="#273773" stroke-width="4" stroke-miterlimit="10" stroke-linecap="round" stroke-linejoin="round"/>
<path id="Vector_51" d="M102.99 55.34V153.72" stroke="#273773" stroke-width="4" stroke-miterlimit="10" stroke-linecap="round" stroke-linejoin="round"/>
<path id="Vector_52" d="M102.99 36.86V23.74" stroke="#273773" stroke-width="4" stroke-miterlimit="10" stroke-linecap="round" stroke-linejoin="round"/>
<path id="Vector_53" d="M132.92 137.77C126.66 148.29 117.55 154.92 107.41 154.92H100.37C81.49 154.92 66.1899 131.96 66.1899 103.64C66.1899 75.32 81.5 52.36 100.37 52.36H107.41C126.29 52.36 141.59 75.32 141.59 103.64C141.59 112.24 140.18 120.35 137.68 127.47" stroke="#273773" stroke-width="4" stroke-miterlimit="10" stroke-linecap="round" stroke-linejoin="round"/>
</g>
</svg>
