<svg width="245" height="246" viewBox="0 0 245 246" fill="none" xmlns="http://www.w3.org/2000/svg">
<g id="Group">
<g id="Group_2">
<path id="Vector" d="M7.20996 108.83L1.65002 96.4601L16.35 98.3101L7.20996 108.83ZM5.16003 99.0601L7.79004 104.91L12.11 99.9401L5.16003 99.0601Z" fill="#1C3E58" stroke="#273773" stroke-miterlimit="10"/>
</g>
<g id="Group_3">
<g id="Group_4">
<path id="Vector_2" d="M23.84 54.79C23.42 54.79 23 54.73 22.6 54.6L19.7901 53.73C11.7201 50.65 6.76001 44.15 4.99001 41.49C-0.989986 32.49 -1.25993 19.19 4.30007 7.61002L5.67007 4.75003C5.88007 4.31003 6.37 4.07004 6.85 4.17004L9.95998 4.80002C11.84 5.18002 13.83 5.18002 15.71 4.80002C17.57 4.42002 19.39 3.65002 20.96 2.58002L23.25 1.02002C23.61 0.77002 24.09 0.77002 24.45 1.02002L26.74 2.58002C28.31 3.65002 30.13 4.42002 31.99 4.80002C33.87 5.18002 35.86 5.18002 37.74 4.80002L40.85 4.17004C41.33 4.07004 41.8101 4.31003 42.0301 4.75003L43.4 7.61002C48.41 18.05 48.72 30.06 44.19 38.95C43.92 39.48 43.28 39.69 42.75 39.42C42.22 39.15 42.0201 38.51 42.2801 37.98C46.5101 29.67 46.2 18.38 41.47 8.53003L40.46 6.42004L38.1701 6.89005C36.0101 7.33005 33.73 7.33005 31.57 6.89005C29.43 6.45005 27.3501 5.58004 25.5401 4.35004L23.85 3.20004L22.1601 4.35004C20.3601 5.58004 18.27 6.46005 16.13 6.89005C13.97 7.33005 11.6901 7.33005 9.53005 6.89005L7.24001 6.42004L6.23 8.53003C0.990004 19.44 1.20004 31.92 6.77004 40.3C8.42004 42.78 13.06 48.87 20.48 51.7L23.23 52.55C23.63 52.67 24.05 52.67 24.45 52.55L27.27 51.67C27.83 51.5 28.43 51.81 28.61 52.37C28.79 52.93 28.4701 53.5301 27.9101 53.7101L25.09 54.5901C24.68 54.7301 24.26 54.79 23.84 54.79Z" fill="#FFB10A"/>
</g>
<g id="Group_5">
<g id="Group_6">
<path id="Vector_3" d="M23.0799 47.17C22.9799 47.17 22.87 47.1501 22.76 47.1201L20.76 46.5001C14.93 44.2801 11.3599 39.6001 10.0899 37.6901C5.78991 31.2101 5.5899 21.6501 9.5799 13.3401L10.55 11.3101C10.76 10.8701 11.2499 10.6301 11.7299 10.7301L13.93 11.1801C15.23 11.4401 16.59 11.4401 17.89 11.1801C19.17 10.9201 20.4199 10.3901 21.4999 9.66006L23.13 8.55005C23.49 8.30005 23.9699 8.30005 24.3299 8.55005L25.9599 9.66006C27.0399 10.4001 28.2899 10.9201 29.5699 11.1801C30.8599 11.4401 32.23 11.4401 33.53 11.1801L35.7399 10.7301C36.3199 10.6101 36.8799 10.9901 36.9999 11.5601C37.1199 12.1401 36.74 12.7001 36.17 12.8201L33.9699 13.2701C32.3999 13.5901 30.73 13.5901 29.16 13.2701C27.6 12.9501 26.08 12.3101 24.77 11.4201L23.7499 10.7201L22.7299 11.4201C21.4199 12.3201 19.8999 12.9601 18.3399 13.2701C16.7699 13.5901 15.11 13.5901 13.53 13.2701L12.14 12.9901L11.53 14.2701C7.85998 21.9201 7.99997 30.6501 11.9 36.5101C13.05 38.2501 16.2999 42.5 21.4899 44.48L23.42 45.0801C23.98 45.2501 24.2999 45.85 24.1199 46.42C23.9599 46.88 23.5399 47.17 23.0799 47.17Z" fill="#FFB10A"/>
</g>
</g>
</g>
<g id="Group_7">
<path id="Vector_4" d="M23.8 34.06C23.53 34.06 23.2699 33.9601 23.0699 33.7801L16.4499 27.6401C16.0199 27.2401 15.99 26.56 16.39 26.13C16.79 25.7 17.47 25.67 17.9 26.07L23.63 31.38L31.6899 20.1C32.0299 19.62 32.7 19.51 33.18 19.85C33.66 20.19 33.77 20.86 33.43 21.34L24.66 33.6C24.48 33.85 24.2 34.01 23.9 34.04C23.87 34.06 23.84 34.06 23.8 34.06Z" fill="#1C3E58" stroke="#273773" stroke-miterlimit="10"/>
</g>
<g id="Group_8">
<path id="Vector_5" d="M217.18 227.28H77.7V244.32H217.18V227.28Z" fill="#EF5A28"/>
</g>
<g id="Group_9">
<path id="Vector_6" d="M135.96 174.68L136.25 170.16L140.2 166.89L154.8 162.79L159.08 165.23L161.66 170.17L165.73 182.9C165.72 182.9 194.57 182.9 194.57 182.9L176.81 124.63L175.58 124.18L165.73 125.22L162.94 121.08L163.23 116.19L166.3 112.54L172.77 111.45L170.51 103.63L110.04 122L129.6 182.89H139.16L135.96 174.68ZM127.58 148.71L122.05 133.9L123.13 129.39L126.16 126.81L140.68 122.54C142.46 122.02 144.33 123 144.91 124.76L149.84 139.79L149.22 143.24L146.16 146.42C146.16 146.42 133.06 150.62 132.73 150.62C132.41 150.63 127.58 148.71 127.58 148.71Z" fill="#1B75BA"/>
</g>
<g id="Group_10">
<path id="Vector_7" d="M217.18 201.02H68.73C68.14 201.02 67.66 200.54 67.66 199.95V164.12C67.66 163.53 68.14 163.05 68.73 163.05H104.56C105.15 163.05 105.63 163.53 105.63 164.12C105.63 164.71 105.15 165.19 104.56 165.19H69.8V198.89H216.11V165.19H205.23C204.64 165.19 204.16 164.71 204.16 164.12C204.16 163.53 204.64 163.05 205.23 163.05H217.17C217.76 163.05 218.24 163.53 218.24 164.12V199.95C218.25 200.55 217.77 201.02 217.18 201.02Z" fill="#1C3E58" stroke="#273773" stroke-miterlimit="10"/>
</g>
<g id="Group_11">
<path id="Vector_8" d="M217.18 245.39H68.73C68.14 245.39 67.66 244.91 67.66 244.32V199.96C67.66 199.37 68.14 198.89 68.73 198.89C69.32 198.89 69.8 199.37 69.8 199.96V243.26H216.11V199.96C216.11 199.37 216.59 198.89 217.18 198.89C217.77 198.89 218.25 199.37 218.25 199.96V244.32C218.25 244.91 217.77 245.39 217.18 245.39Z" fill="#1C3E58" stroke="#273773" stroke-miterlimit="10"/>
</g>
<g id="Group_12">
<path id="Vector_9" d="M215.48 214.67H214.55C213.96 214.67 213.48 214.19 213.48 213.6C213.48 213.01 213.96 212.53 214.55 212.53H215.48C216.07 212.53 216.55 213.01 216.55 213.6C216.54 214.2 216.07 214.67 215.48 214.67ZM209.33 214.67H207.77C207.18 214.67 206.7 214.19 206.7 213.6C206.7 213.01 207.18 212.53 207.77 212.53H209.33C209.92 212.53 210.4 213.01 210.4 213.6C210.4 214.2 209.92 214.67 209.33 214.67ZM202.55 214.67H200.99C200.4 214.67 199.92 214.19 199.92 213.6C199.92 213.01 200.4 212.53 200.99 212.53H202.55C203.14 212.53 203.62 213.01 203.62 213.6C203.62 214.2 203.14 214.67 202.55 214.67ZM195.77 214.67H194.21C193.62 214.67 193.14 214.19 193.14 213.6C193.14 213.01 193.62 212.53 194.21 212.53H195.77C196.36 212.53 196.84 213.01 196.84 213.6C196.84 214.2 196.36 214.67 195.77 214.67ZM189 214.67H187.44C186.85 214.67 186.37 214.19 186.37 213.6C186.37 213.01 186.85 212.53 187.44 212.53H189C189.59 212.53 190.07 213.01 190.07 213.6C190.06 214.2 189.59 214.67 189 214.67ZM182.22 214.67H180.66C180.07 214.67 179.59 214.19 179.59 213.6C179.59 213.01 180.07 212.53 180.66 212.53H182.22C182.81 212.53 183.29 213.01 183.29 213.6C183.29 214.2 182.81 214.67 182.22 214.67ZM175.44 214.67H173.88C173.29 214.67 172.81 214.19 172.81 213.6C172.81 213.01 173.29 212.53 173.88 212.53H175.44C176.03 212.53 176.51 213.01 176.51 213.6C176.51 214.2 176.03 214.67 175.44 214.67ZM168.66 214.67H167.1C166.51 214.67 166.03 214.19 166.03 213.6C166.03 213.01 166.51 212.53 167.1 212.53H168.66C169.25 212.53 169.73 213.01 169.73 213.6C169.73 214.2 169.25 214.67 168.66 214.67ZM161.88 214.67H160.32C159.73 214.67 159.25 214.19 159.25 213.6C159.25 213.01 159.73 212.53 160.32 212.53H161.88C162.47 212.53 162.95 213.01 162.95 213.6C162.95 214.2 162.47 214.67 161.88 214.67ZM155.1 214.67H153.54C152.95 214.67 152.47 214.19 152.47 213.6C152.47 213.01 152.95 212.53 153.54 212.53H155.1C155.69 212.53 156.17 213.01 156.17 213.6C156.17 214.2 155.69 214.67 155.1 214.67ZM148.32 214.67H146.76C146.17 214.67 145.69 214.19 145.69 213.6C145.69 213.01 146.17 212.53 146.76 212.53H148.32C148.91 212.53 149.39 213.01 149.39 213.6C149.39 214.2 148.91 214.67 148.32 214.67ZM141.54 214.67H139.98C139.39 214.67 138.91 214.19 138.91 213.6C138.91 213.01 139.39 212.53 139.98 212.53H141.54C142.13 212.53 142.61 213.01 142.61 213.6C142.61 214.2 142.13 214.67 141.54 214.67ZM134.77 214.67H133.21C132.62 214.67 132.14 214.19 132.14 213.6C132.14 213.01 132.62 212.53 133.21 212.53H134.77C135.36 212.53 135.84 213.01 135.84 213.6C135.83 214.2 135.36 214.67 134.77 214.67ZM127.99 214.67H126.43C125.84 214.67 125.36 214.19 125.36 213.6C125.36 213.01 125.84 212.53 126.43 212.53H127.99C128.58 212.53 129.06 213.01 129.06 213.6C129.05 214.2 128.58 214.67 127.99 214.67ZM121.21 214.67H119.65C119.06 214.67 118.58 214.19 118.58 213.6C118.58 213.01 119.06 212.53 119.65 212.53H121.21C121.8 212.53 122.28 213.01 122.28 213.6C122.28 214.2 121.8 214.67 121.21 214.67ZM114.43 214.67H112.87C112.28 214.67 111.8 214.19 111.8 213.6C111.8 213.01 112.28 212.53 112.87 212.53H114.43C115.02 212.53 115.5 213.01 115.5 213.6C115.5 214.2 115.02 214.67 114.43 214.67ZM107.65 214.67H106.09C105.5 214.67 105.02 214.19 105.02 213.6C105.02 213.01 105.5 212.53 106.09 212.53H107.65C108.24 212.53 108.72 213.01 108.72 213.6C108.72 214.2 108.24 214.67 107.65 214.67ZM100.87 214.67H99.3101C98.7201 214.67 98.24 214.19 98.24 213.6C98.24 213.01 98.7201 212.53 99.3101 212.53H100.87C101.46 212.53 101.94 213.01 101.94 213.6C101.94 214.2 101.46 214.67 100.87 214.67ZM94.09 214.67H92.53C91.94 214.67 91.46 214.19 91.46 213.6C91.46 213.01 91.94 212.53 92.53 212.53H94.09C94.68 212.53 95.16 213.01 95.16 213.6C95.16 214.2 94.68 214.67 94.09 214.67ZM87.3101 214.67H85.75C85.16 214.67 84.6801 214.19 84.6801 213.6C84.6801 213.01 85.16 212.53 85.75 212.53H87.3101C87.9001 212.53 88.38 213.01 88.38 213.6C88.38 214.2 87.9001 214.67 87.3101 214.67ZM80.54 214.67H78.98C78.39 214.67 77.91 214.19 77.91 213.6C77.91 213.01 78.39 212.53 78.98 212.53H80.54C81.13 212.53 81.61 213.01 81.61 213.6C81.6 214.2 81.13 214.67 80.54 214.67Z" fill="#EF5A28"/>
</g>
<g id="Group_13">
<path id="Vector_10" d="M165.09 182.42C164.65 182.42 164.23 182.14 164.08 181.7L159.33 167.88C158.35 164.83 155.09 163.16 152.07 164.13L141.37 167.56C139.9 168.03 138.71 169.05 138 170.42C137.3 171.79 137.17 173.35 137.64 174.82L139.63 181.03C139.81 181.59 139.5 182.19 138.94 182.37C138.38 182.55 137.78 182.24 137.6 181.68L135.61 175.47C134.96 173.46 135.14 171.32 136.11 169.44C137.08 167.56 138.72 166.17 140.73 165.53L151.43 162.1C155.58 160.77 160.04 163.06 161.37 167.21L166.11 181.01C166.3 181.57 166 182.18 165.45 182.37C165.32 182.4 165.21 182.42 165.09 182.42Z" fill="#1C3E58"/>
</g>
<g id="Group_14">
<path id="Vector_11" d="M223.57 123.73C223.39 123.73 223.21 123.68 223.05 123.6C222.8 123.46 222.62 123.23 222.54 122.95L209.66 76.99C209.5 76.43 209.83 75.84 210.39 75.68L229.59 70C230.16 69.83 230.75 70.16 230.92 70.72C231.09 71.29 230.76 71.88 230.2 72.05L212.01 77.43L224.31 121.33L235.39 118.05C235.96 117.88 236.55 118.21 236.72 118.77C236.89 119.34 236.56 119.93 236 120.1L223.88 123.68C223.77 123.71 223.67 123.73 223.57 123.73Z" fill="#1C3E58" stroke="#273773" stroke-miterlimit="10"/>
</g>
<g id="Group_15">
<path id="Vector_12" d="M139.88 106.33C139.65 106.33 139.43 106.26 139.23 106.11C138.76 105.75 138.67 105.08 139.03 104.61L150.74 89.2201C150.82 89.1101 150.93 89.0201 151.04 88.9501L167.58 79.0701C170.17 77.5301 173.23 76.9301 176.21 77.3901L192.67 79.9401C196.8 80.5801 201 80.7201 205.16 80.3501L211.16 79.8201C211.75 79.7701 212.27 80.2001 212.32 80.7901C212.37 81.3801 211.94 81.9001 211.35 81.9501L205.35 82.4801C201.02 82.8601 196.65 82.7101 192.35 82.0501L175.89 79.5001C173.4 79.1201 170.85 79.6101 168.69 80.9001L152.33 90.6701L140.74 105.89C140.52 106.18 140.2 106.33 139.88 106.33Z" fill="#1C3E58" stroke="#273773" stroke-miterlimit="10"/>
</g>
<g id="Group_16">
<path id="Vector_13" d="M168.8 126.28C165.45 126.28 162.44 123.96 161.67 120.59C161.22 118.62 161.61 116.54 162.74 114.86C163.87 113.19 165.66 112.05 167.65 111.73L176.34 110.35L182.44 107.95C184 107.34 184.88 105.65 184.49 104.03C184.2 102.81 183.21 101.36 178.07 100.92L169.52 101.35C168.93 101.38 168.43 100.93 168.4 100.34C168.37 99.75 168.82 99.25 169.41 99.22L178.04 98.78C178.09 98.78 178.13 98.78 178.18 98.78C183.23 99.2 185.9 100.71 186.57 103.53C187.2 106.19 185.76 108.94 183.22 109.94L177.01 112.38C176.94 112.41 176.86 112.43 176.79 112.44L167.98 113.84C166.55 114.07 165.31 114.85 164.5 116.06C163.69 117.27 163.42 118.7 163.74 120.11C164.35 122.78 166.94 124.52 169.64 124.07L178.54 122.59C178.58 122.58 178.63 122.58 178.67 122.58L196.94 121.85C201.97 121.65 206.87 120.09 211.09 117.35L218.39 112.6C218.88 112.28 219.55 112.42 219.87 112.91C220.19 113.4 220.05 114.07 219.56 114.39L212.26 119.14C207.71 122.09 202.45 123.77 197.03 123.99L178.83 124.72L170 126.19C169.6 126.24 169.2 126.28 168.8 126.28Z" fill="#1C3E58" stroke="#273773" stroke-miterlimit="10"/>
</g>
<g id="Group_17">
<path id="Vector_14" d="M118.73 171.23C118.27 171.23 117.85 170.93 117.71 170.47L101.68 118.12C101.6 117.85 101.63 117.56 101.76 117.31C101.89 117.06 102.12 116.87 102.39 116.79L168.22 96.6301C168.78 96.4601 169.37 96.7701 169.55 97.3201L173.77 110.18C173.95 110.74 173.65 111.34 173.09 111.53C172.53 111.71 171.93 111.41 171.74 110.85L167.85 98.9901L104.04 118.53L119.76 169.86C119.93 170.42 119.62 171.02 119.05 171.19C118.94 171.21 118.84 171.23 118.73 171.23Z" fill="#1C3E58" stroke="#273773" stroke-miterlimit="10"/>
</g>
<g id="Group_18">
<path id="Vector_15" d="M194.55 183.56C194.09 183.56 193.67 183.26 193.53 182.8L175.77 124.93C175.6 124.37 175.91 123.77 176.48 123.6C177.04 123.43 177.64 123.74 177.81 124.31L195.57 182.18C195.74 182.74 195.43 183.34 194.86 183.51C194.76 183.54 194.65 183.56 194.55 183.56Z" fill="#1C3E58" stroke="#273773" stroke-miterlimit="10"/>
</g>
<g id="Group_19">
<path id="Vector_16" d="M132.32 151.7C131.08 151.7 129.85 151.4 128.71 150.82C126.83 149.85 125.44 148.21 124.8 146.2L121.37 135.5C120.04 131.35 122.33 126.89 126.48 125.56L137.18 122.13C137.74 121.95 138.34 122.26 138.52 122.82C138.7 123.38 138.39 123.98 137.83 124.16L127.13 127.59C124.1 128.56 122.43 131.82 123.4 134.85L126.83 145.55C127.3 147.02 128.31 148.21 129.69 148.92C131.06 149.62 132.62 149.75 134.09 149.28L144.79 145.85C146.26 145.38 147.45 144.36 148.16 142.99C148.86 141.62 148.99 140.06 148.52 138.59C148.34 138.03 148.65 137.43 149.21 137.25C149.77 137.07 150.37 137.38 150.55 137.94C151.2 139.95 151.02 142.09 150.05 143.97C149.08 145.85 147.44 147.24 145.43 147.88L134.73 151.31C133.95 151.57 133.13 151.7 132.32 151.7Z" fill="#1C3E58" stroke="#273773" stroke-miterlimit="10"/>
</g>
<g id="Group_20">
<path id="Vector_17" d="M140.01 140.48C139.73 140.48 139.46 140.42 139.2 140.29L130.11 135.68C129.23 135.24 128.88 134.16 129.33 133.29C129.77 132.41 130.85 132.06 131.72 132.51L139.15 136.28L146.28 120.35C146.68 119.45 147.73 119.05 148.63 119.45C149.53 119.85 149.93 120.9 149.53 121.8L141.64 139.43C141.44 139.87 141.07 140.22 140.61 140.38C140.41 140.45 140.21 140.48 140.01 140.48Z" fill="#1C3E58" stroke="#273773" stroke-miterlimit="10"/>
</g>
<g id="Group_21">
<path id="Vector_18" d="M109.66 103.39C109.38 103.39 109.11 103.28 108.9 103.08L103.27 97.45C102.85 97.03 102.85 96.36 103.27 95.94C103.69 95.52 104.36 95.52 104.78 95.94L109.6 100.76L121.97 86.62C122.36 86.18 123.03 86.13 123.48 86.52C123.92 86.91 123.97 87.58 123.58 88.03L110.45 103.03C110.26 103.25 109.98 103.38 109.68 103.39C109.69 103.39 109.68 103.39 109.66 103.39Z" fill="#1C3E58" stroke="#273773" stroke-miterlimit="10"/>
</g>
<g id="Group_22">
<path id="Vector_19" d="M42.3 93.7001C42.2 93.7001 42.1 93.69 42 93.66L30.99 90.4001C30.42 90.2301 30.1 89.6401 30.27 89.0701C30.44 88.5001 31.03 88.18 31.6 88.35L41.5699 91.3L52.03 53.98L39.3101 50.22L30.9 79.0701C30.73 79.6401 30.14 79.96 29.58 79.8C29.01 79.64 28.69 79.04 28.85 78.48L37.5601 48.6C37.6401 48.33 37.8199 48.1001 38.0699 47.9601C38.3199 47.8201 38.61 47.79 38.88 47.87L53.63 52.23C54.19 52.4 54.51 52.98 54.36 53.54L43.33 92.92C43.25 93.2 43.0699 93.4301 42.8199 93.5701C42.6499 93.6601 42.48 93.7001 42.3 93.7001Z" fill="#1C3E58" stroke="#273773" stroke-miterlimit="10"/>
</g>
<g id="Group_23">
<path id="Vector_20" d="M108.89 72.0901C108.57 72.0901 108.25 71.9501 108.04 71.6701L103.23 65.3601L89.24 57.0001C87.42 55.9101 85.2601 55.4901 83.1701 55.8201L69.0601 58.0001C65.3701 58.5701 61.6101 58.7001 57.8901 58.3701L52.75 57.9201C52.16 57.8701 51.7301 57.3501 51.7801 56.7601C51.8301 56.1701 52.35 55.7401 52.94 55.7901L58.08 56.2401C61.63 56.5501 65.22 56.4301 68.74 55.8901L82.85 53.7101C85.43 53.3101 88.1 53.8301 90.34 55.1701L104.51 63.6301C104.63 63.7001 104.73 63.7901 104.81 63.9001L109.74 70.3801C110.1 70.8501 110.01 71.5201 109.54 71.8801C109.35 72.0201 109.12 72.0901 108.89 72.0901Z" fill="#1C3E58" stroke="#273773" stroke-miterlimit="10"/>
</g>
<g id="Group_24">
<path id="Vector_21" d="M89.22 95.89C88.87 95.89 88.52 95.86 88.16 95.8L80.6 94.54L65.01 93.92C60.34 93.73 55.8 92.29 51.89 89.74L45.63 85.67C45.14 85.35 45 84.69 45.32 84.19C45.64 83.69 46.3001 83.56 46.8001 83.88L53.0601 87.95C56.6601 90.29 60.82 91.61 65.11 91.78L80.76 92.41C80.8 92.41 80.85 92.42 80.89 92.42L88.51 93.69C90.74 94.06 92.89 92.62 93.39 90.42C93.66 89.25 93.43 88.06 92.76 87.07C92.09 86.08 91.07 85.43 89.88 85.24L82.34 84.04C82.26 84.03 82.19 84.01 82.12 83.98L76.8001 81.89C74.5501 81.01 73.28 78.57 73.84 76.22L73.9 75.95C74.47 73.46 75.5301 72.63 80.6701 72.63C81.2601 72.63 81.74 73.11 81.74 73.7C81.74 74.29 81.2601 74.77 80.6701 74.77C76.3601 74.77 76.25 75.26 75.98 76.43L75.91 76.71C75.6 78.03 76.31 79.4 77.57 79.89L82.78 81.94L90.21 83.12C91.96 83.4 93.53 84.4 94.52 85.87C95.51 87.34 95.85 89.17 95.46 90.9C94.81 93.85 92.17 95.89 89.22 95.89Z" fill="#1C3E58" stroke="#273773" stroke-miterlimit="10"/>
</g>
<g id="Group_25">
<path id="Vector_22" d="M111.39 151.54H80.6801C80.0901 151.54 79.61 151.06 79.61 150.47V106.11C79.61 105.52 80.0901 105.04 80.6801 105.04C81.2701 105.04 81.75 105.52 81.75 106.11V149.41H111.4C111.99 149.41 112.47 149.89 112.47 150.48C112.46 151.06 111.98 151.54 111.39 151.54Z" fill="#1C3E58" stroke="#273773" stroke-miterlimit="10"/>
</g>
<g id="Group_26">
<path id="Vector_23" d="M140.4 90.11C139.81 90.11 139.33 89.63 139.33 89.04V74.75H80.6801C80.0901 74.75 79.61 74.27 79.61 73.68C79.61 73.09 80.0901 72.61 80.6801 72.61H140.4C140.99 72.61 141.47 73.09 141.47 73.68V89.04C141.47 89.64 140.99 90.11 140.4 90.11Z" fill="#1C3E58" stroke="#273773" stroke-miterlimit="10"/>
</g>
<g id="Group_27">
<path id="Vector_24" d="M205.24 183.96H84.09C83.5 183.96 83.02 183.48 83.02 182.89C83.02 182.3 83.5 181.82 84.09 181.82H205.24C205.83 181.82 206.31 182.3 206.31 182.89C206.31 183.48 205.83 183.96 205.24 183.96Z" fill="#1C3E58" stroke="#273773" stroke-miterlimit="10"/>
</g>
<g id="Group_28">
<path id="Vector_25" d="M235.8 9.82004H233.66V3.97003H227.81V1.84003H235.8V9.82004Z" fill="#1C3E58" stroke="#273773" stroke-miterlimit="10"/>
</g>
<g id="Group_29">
<path id="Vector_26" d="M183.63 31.47L183.48 29.34C202.89 28.02 220.78 18.33 232.57 2.76001L234.27 4.04999C222.11 20.11 203.65 30.1 183.63 31.47Z" fill="#1C3E58" stroke="#273773" stroke-miterlimit="10"/>
</g>
<g id="Group_30">
<path id="Vector_27" d="M195.1 61.67H192.96V35.02H206.16V54.72H204.03V37.16H195.1V61.67Z" fill="#FFB10A"/>
</g>
<g id="Group_31">
<path id="Vector_28" d="M214.46 56.04H212.32V27.0701H225.52V48.8801H223.39V29.2101H214.46V56.04Z" fill="#FFB10A"/>
</g>
<g id="Group_32">
<path id="Vector_29" d="M233.13 51.0001H230.99V15.3201H244.19V44.6801H242.05V17.4601H233.13V51.0001Z" fill="#FFB10A"/>
</g>
<g id="Group_33">
<path id="Vector_30" d="M184.63 16.9H182.49V61.87H184.63V16.9Z" fill="#1C3E58" stroke="#273773" stroke-miterlimit="10"/>
</g>
<g id="Group_34">
<path id="Vector_31" d="M96.92 22.55H95.36C94.77 22.55 94.29 22.07 94.29 21.48C94.29 20.89 94.77 20.41 95.36 20.41H96.92C97.51 20.41 97.99 20.89 97.99 21.48C97.99 22.07 97.51 22.55 96.92 22.55ZM90.15 22.55H88.59C88 22.55 87.52 22.07 87.52 21.48C87.52 20.89 88 20.41 88.59 20.41H90.15C90.74 20.41 91.22 20.89 91.22 21.48C91.22 22.07 90.74 22.55 90.15 22.55ZM83.37 22.55H81.8101C81.2201 22.55 80.74 22.07 80.74 21.48C80.74 20.89 81.2201 20.41 81.8101 20.41H83.37C83.96 20.41 84.4399 20.89 84.4399 21.48C84.4399 22.07 83.96 22.55 83.37 22.55ZM76.59 22.55H75.03C74.44 22.55 73.96 22.07 73.96 21.48C73.96 20.89 74.44 20.41 75.03 20.41H76.59C77.18 20.41 77.66 20.89 77.66 21.48C77.66 22.07 77.18 22.55 76.59 22.55ZM69.8101 22.55H68.25C67.66 22.55 67.1801 22.07 67.1801 21.48C67.1801 20.89 67.66 20.41 68.25 20.41H69.8101C70.4001 20.41 70.88 20.89 70.88 21.48C70.88 22.07 70.4001 22.55 69.8101 22.55ZM63.03 22.55H61.47C60.88 22.55 60.4 22.07 60.4 21.48C60.4 20.89 60.88 20.41 61.47 20.41H63.03C63.62 20.41 64.1 20.89 64.1 21.48C64.1 22.07 63.62 22.55 63.03 22.55Z" fill="#EF5A28"/>
</g>
<g id="Group_35">
<path id="Vector_32" d="M51.9 207.89H10.08V137.87H51.14L61.55 148.88V157.41H59.41V149.73L50.22 140.01H12.21V205.76H51.9V207.89Z" fill="#FFB10A"/>
</g>
<g id="Group_36">
<path id="Vector_33" d="M60.48 151.63H48.6899V138.94H50.8199V149.49H60.48V151.63Z" fill="#FFB10A"/>
</g>
<g id="Group_37">
<path id="Vector_34" d="M25.27 159.82L20.46 155.01L21.97 153.5L25.27 156.8L30.88 151.19L32.39 152.7L25.27 159.82Z" fill="#1C3E58" stroke="#273773" stroke-miterlimit="10"/>
</g>
<g id="Group_38">
<path id="Vector_35" d="M25.27 178.26L20.46 173.45L21.97 171.94L25.27 175.23L30.88 169.62L32.39 171.13L25.27 178.26Z" fill="#1C3E58" stroke="#273773" stroke-miterlimit="10"/>
</g>
<g id="Group_39">
<path id="Vector_36" d="M25.27 195.79L20.46 190.98L21.97 189.47L25.27 192.77L30.88 187.16L32.39 188.67L25.27 195.79Z" fill="#1C3E58" stroke="#273773" stroke-miterlimit="10"/>
</g>
<g id="Group_40">
<path id="Vector_37" d="M51.9 171.68H37.0601V173.82H51.9V171.68Z" fill="#1C3E58" stroke="#273773" stroke-miterlimit="10"/>
</g>
<g id="Group_41">
<path id="Vector_38" d="M51.9 155.01H37.0601V157.15H51.9V155.01Z" fill="#1C3E58" stroke="#273773" stroke-miterlimit="10"/>
</g>
<g id="Group_42">
<path id="Vector_39" d="M51.72 190.2H37.0601V192.34H51.72V190.2Z" fill="#1C3E58" stroke="#273773" stroke-miterlimit="10"/>
</g>
<g id="Group_43">
<path id="Vector_40" d="M23.67 131.64H21.53V118.31H57.4V120.45H23.67V131.64Z" fill="#FFB10A"/>
</g>
<g id="Group_44">
<path id="Vector_41" d="M162.34 22.6601H143.93V4.32007H145C154.52 4.32007 162.3 12.0701 162.34 21.5901V22.6601ZM146.06 20.5301H160.15C159.59 13.0301 153.56 7.02006 146.06 6.50006V20.5301Z" fill="#FFB10A"/>
</g>
<g id="Group_45">
<path id="Vector_42" d="M134.49 56.48C120.76 56.48 109.59 45.3101 109.59 31.5801C109.59 17.8501 120.76 6.68005 134.49 6.68005H135.56V30.5201H159.4V31.5901C159.4 45.3101 148.23 56.48 134.49 56.48ZM133.43 8.83005C121.37 9.39005 111.73 19.3801 111.73 31.5701C111.73 44.1201 121.94 54.3401 134.5 54.3401C146.7 54.3401 156.68 44.7001 157.24 32.6401H133.43V8.83005Z" fill="#1C3E58" stroke="#273773" stroke-miterlimit="10"/>
</g>
</g>
</svg>
