<svg width="252" height="244" viewBox="0 0 252 244" fill="none" xmlns="http://www.w3.org/2000/svg">
<g id="Group">
<g id="Group_2">
<path id="Vector" d="M32.13 191.59V200.16" stroke="white" stroke-width="3" stroke-miterlimit="10" stroke-linecap="round" stroke-linejoin="round"/>
<path id="Vector_2" d="M32.13 209.88V218.45" stroke="white" stroke-width="3" stroke-miterlimit="10" stroke-linecap="round" stroke-linejoin="round"/>
<path id="Vector_3" d="M18.42 205.31H26.99" stroke="white" stroke-width="3" stroke-miterlimit="10" stroke-linecap="round" stroke-linejoin="round"/>
<path id="Vector_4" d="M36.7001 205.31H45.2701" stroke="white" stroke-width="3" stroke-miterlimit="10" stroke-linecap="round" stroke-linejoin="round"/>
</g>
<path id="Vector_5" d="M157.83 79.03V87.6" stroke="#EF5A28" stroke-width="3" stroke-miterlimit="10" stroke-linecap="round" stroke-linejoin="round"/>
<path id="Vector_6" d="M172.69 79.03V87.6" stroke="#EF5A28" stroke-width="3" stroke-miterlimit="10" stroke-linecap="round" stroke-linejoin="round"/>
<path id="Vector_7" d="M187.54 79.03V87.6" stroke="#EF5A28" stroke-width="3" stroke-miterlimit="10" stroke-linecap="round" stroke-linejoin="round"/>
<path id="Vector_8" d="M202.97 79.03V87.6" stroke="#EF5A28" stroke-width="3" stroke-miterlimit="10" stroke-linecap="round" stroke-linejoin="round"/>
<path id="Vector_9" d="M141.26 71.03H219.54V94.46" stroke="#FFB10A" stroke-width="3" stroke-miterlimit="10" stroke-linecap="round" stroke-linejoin="round"/>
<path id="Vector_10" d="M140.39 7.43994C140.39 12.2899 137.48 12.2899 137.48 17.1399C137.48 21.9899 140.39 21.9899 140.39 26.8499C140.39 31.6999 137.48 31.6999 137.48 36.5599" stroke="#FFB10A" stroke-width="3" stroke-miterlimit="10" stroke-linecap="round" stroke-linejoin="round"/>
<path id="Vector_11" d="M127.63 6.84998C127.63 11.7 124.72 11.7 124.72 16.55C124.72 21.4 127.63 21.4 127.63 26.26C127.63 31.12 124.72 31.11 124.72 35.97" stroke="#FFB10A" stroke-width="3" stroke-miterlimit="10" stroke-linecap="round" stroke-linejoin="round"/>
<path id="Vector_12" d="M142.97 95.6H238.39V156.17" stroke="white" stroke-width="3" stroke-miterlimit="10" stroke-linecap="round" stroke-linejoin="round"/>
<path id="Vector_13" d="M217.25 159.03H249.82" stroke="white" stroke-width="3" stroke-miterlimit="10" stroke-linecap="round" stroke-linejoin="round"/>
<path id="Vector_14" d="M107.9 95.49L111.03 58.46H139.82L146.42 136.52" stroke="white" stroke-width="3" stroke-miterlimit="10" stroke-linecap="round" stroke-linejoin="round"/>
<path id="Vector_15" d="M141.26 43.61H109.83V58.47H141.26V43.61Z" stroke="white" stroke-width="3" stroke-miterlimit="10" stroke-linecap="round" stroke-linejoin="round"/>
<path id="Vector_16" d="M197.54 129.31H186.57L203.03 103.26L198.91 122.46H209.88L194.8 148.51L197.54 129.31Z" stroke="#FFB10A" stroke-width="3" stroke-miterlimit="10" stroke-linecap="round" stroke-linejoin="round"/>
<g id="Group_3">
<path id="Vector_17" d="M242.62 242.32C231.62 234.84 210.67 229.79 186.63 229.79C162.59 229.79 141.64 234.84 130.64 242.32" stroke="white" stroke-width="3" stroke-miterlimit="10" stroke-linecap="round" stroke-linejoin="round"/>
<path id="Vector_18" d="M166.4 157.88V229.88" stroke="white" stroke-width="3" stroke-miterlimit="10" stroke-linecap="round" stroke-linejoin="round"/>
<path id="Vector_19" d="M131.81 182.46C131.81 192.51 140.03 200.73 150.08 200.73H182.12C191.59 200.73 199.74 193.66 200.64 184.23C201.5 175.22 195.7 167.34 187.61 164.94C188.88 161.72 189.46 158.16 189.16 154.43C188.23 142.9 178.83 133.65 167.29 132.91C153.62 132.03 142.25 142.87 142.25 156.35C142.25 159.5 142.87 162.5 144 165.25" stroke="white" stroke-width="3" stroke-miterlimit="10" stroke-linecap="round" stroke-linejoin="round"/>
<path id="Vector_20" d="M153.74 177.58L165.22 186.98" stroke="white" stroke-width="3" stroke-miterlimit="10" stroke-linecap="round" stroke-linejoin="round"/>
<path id="Vector_21" d="M174.62 166.1L166.64 172.49" stroke="white" stroke-width="3" stroke-miterlimit="10" stroke-linecap="round" stroke-linejoin="round"/>
<path id="Vector_22" d="M185.83 207.02L178.33 218.45H232.45L218.39 196.74H230.1L214 174.45H223.53L205.42 150.56L195.54 163.6" stroke="white" stroke-width="3" stroke-miterlimit="10" stroke-linecap="round" stroke-linejoin="round"/>
<path id="Vector_23" d="M204.68 218.45V229.88" stroke="white" stroke-width="3" stroke-miterlimit="10" stroke-linecap="round" stroke-linejoin="round"/>
</g>
<path id="Vector_24" d="M119.82 39.38C111.95 18.07 91.4501 2.87 67.4001 2.87C37.8501 2.87 13.6601 25.81 11.6801 54.86" stroke="white" stroke-width="3" stroke-miterlimit="10" stroke-linecap="round" stroke-linejoin="round"/>
<path id="Vector_25" d="M22.74 92.28C27.09 98.07 32.55 102.98 38.79 106.71" stroke="white" stroke-width="3" stroke-miterlimit="10" stroke-linecap="round" stroke-linejoin="round"/>
<path id="Vector_26" d="M36.9401 94.83L43.7401 104.11" stroke="white" stroke-width="3" stroke-miterlimit="10" stroke-linecap="round" stroke-linejoin="round"/>
<g id="Group_4">
<path id="Vector_27" d="M68.1201 4.18005V34.4701" stroke="white" stroke-width="3" stroke-miterlimit="10" stroke-linecap="round" stroke-linejoin="round"/>
<path id="Vector_28" d="M48.7001 59.04H20.7001" stroke="white" stroke-width="3" stroke-miterlimit="10" stroke-linecap="round" stroke-linejoin="round"/>
<path id="Vector_29" d="M102.98 59.04H83.55" stroke="white" stroke-width="3" stroke-miterlimit="10" stroke-linecap="round" stroke-linejoin="round"/>
<path id="Vector_30" d="M94.2501 72.26C94.7701 67.93 95.0501 63.39 95.0501 58.73C95.0501 27.88 82.9301 2.87 67.9701 2.87C53.0101 2.87 40.8901 27.88 40.8901 58.73C40.8901 73.69 43.7401 87.27 48.3801 97.3" stroke="white" stroke-width="3" stroke-miterlimit="10" stroke-linecap="round" stroke-linejoin="round"/>
<path id="Vector_31" d="M51.7901 86.53C46.5401 87.09 41.6101 87.91 37.1201 88.95" stroke="white" stroke-width="3" stroke-miterlimit="10" stroke-linecap="round" stroke-linejoin="round"/>
<path id="Vector_32" d="M80.6501 86.16C76.6501 85.85 71.2501 85.89 66.9801 85.89" stroke="white" stroke-width="3" stroke-miterlimit="10" stroke-linecap="round" stroke-linejoin="round"/>
<path id="Vector_33" d="M67.7001 32.66C50.2101 32.61 34.5601 29.91 23.9801 25.67" stroke="white" stroke-width="3" stroke-miterlimit="10" stroke-linecap="round" stroke-linejoin="round"/>
<path id="Vector_34" d="M111.91 25.89C103.64 29.11 91.15 31.88 78.41 32.76" stroke="white" stroke-width="3" stroke-miterlimit="10" stroke-linecap="round" stroke-linejoin="round"/>
</g>
<path id="Vector_35" d="M9.83002 83.63C19.34 94.53 36.9201 94.76 36.9201 94.76C36.9201 94.76 39.08 77.31 29.57 66.41C20.06 55.51 2.48005 55.28 2.48005 55.28C2.48005 55.28 0.320023 72.73 9.83002 83.63Z" fill="#1B75BA" stroke="#FFB10A" stroke-width="3" stroke-miterlimit="10" stroke-linecap="round" stroke-linejoin="round"/>
<path id="Vector_36" d="M81.5801 66.63C75.7001 83.81 55.3801 92.4 55.3801 92.4C55.3801 92.4 44.6001 73.15 50.4801 55.98C56.3601 38.8 76.6801 30.21 76.6801 30.21C76.6801 30.21 87.4601 49.45 81.5801 66.63Z" fill="#1B75BA" stroke="#FFB10A" stroke-width="3" stroke-miterlimit="10" stroke-linecap="round" stroke-linejoin="round"/>
<path id="Vector_37" d="M92.9801 144.01V79.89H84.9801L72.4101 143.88L16.9301 176.23L20.2501 181.98L81.9101 160.86C77.1001 159.81 73.5801 155.28 74.1401 150.04C74.6501 145.24 78.6701 141.44 83.4801 141.18C89.2401 140.86 94.0101 145.44 94.0101 151.13C94.0101 156.5 89.7601 160.87 84.4401 161.08L145.47 181.98L148.79 176.23L92.9801 144.01Z" fill="#EF5A28"/>
<path id="Vector_38" d="M8.42004 237.02H127.83" stroke="white" stroke-width="4" stroke-miterlimit="10" stroke-linecap="round" stroke-linejoin="round"/>
<path id="Vector_39" d="M64.4501 236.84L72.4201 161.1" stroke="white" stroke-width="4" stroke-miterlimit="10" stroke-linecap="round" stroke-linejoin="round"/>
<path id="Vector_40" d="M92.3501 161.1L100.32 236.84" stroke="white" stroke-width="4" stroke-miterlimit="10" stroke-linecap="round" stroke-linejoin="round"/>
<path id="Vector_41" d="M82.41 155.88C87.9329 155.88 92.41 151.403 92.41 145.88C92.41 140.357 87.9329 135.88 82.41 135.88C76.8872 135.88 72.41 140.357 72.41 145.88C72.41 151.403 76.8872 155.88 82.41 155.88Z" stroke="white" stroke-width="4" stroke-miterlimit="10" stroke-linecap="round" stroke-linejoin="round"/>
<path id="Vector_42" d="M92.41 143.88V75.89H85.76L72.48 143.66" stroke="white" stroke-width="4" stroke-miterlimit="10" stroke-linecap="round" stroke-linejoin="round"/>
<path id="Vector_43" d="M74.9901 138.52L16.3 172.4L19.6201 178.16L84.9601 155.78" stroke="white" stroke-width="4" stroke-miterlimit="10" stroke-linecap="round" stroke-linejoin="round"/>
<path id="Vector_44" d="M89.47 138.52L148.16 172.4L144.84 178.16L79.5 155.78" stroke="white" stroke-width="4" stroke-miterlimit="10" stroke-linecap="round" stroke-linejoin="round"/>
<path id="Vector_45" d="M29.65 152.49C29.38 150.31 29.24 148.08 29.24 145.82C29.24 121.13 46.07 100.38 68.88 94.4" stroke="white" stroke-width="4" stroke-miterlimit="10" stroke-linecap="round" stroke-linejoin="round"/>
<path id="Vector_46" d="M61.24 194.6C53.01 191.03 45.86 185.43 40.42 178.44" stroke="white" stroke-width="4" stroke-miterlimit="10" stroke-linecap="round" stroke-linejoin="round"/>
<path id="Vector_47" d="M123.24 179.83C117.92 186.21 111.13 191.33 103.4 194.66" stroke="white" stroke-width="4" stroke-miterlimit="10" stroke-linecap="round" stroke-linejoin="round"/>
<path id="Vector_48" d="M104.09 97.29C122.62 105.59 135.53 124.2 135.53 145.82C135.53 148.21 135.37 150.56 135.07 152.87" stroke="white" stroke-width="4" stroke-miterlimit="10" stroke-linecap="round" stroke-linejoin="round"/>
<path id="Vector_49" d="M100.42 111.76C112.62 118.23 120.92 131.06 120.92 145.83" stroke="white" stroke-width="4" stroke-miterlimit="10" stroke-linecap="round" stroke-linejoin="round"/>
<path id="Vector_50" d="M43.8501 145.82C43.8501 128.22 55.6501 113.37 71.7801 108.76" stroke="white" stroke-width="4" stroke-miterlimit="10" stroke-linecap="round" stroke-linejoin="round"/>
<path id="Vector_51" d="M64.01 179.7C60.64 177.87 57.58 175.55 54.91 172.84" stroke="white" stroke-width="4" stroke-miterlimit="10" stroke-linecap="round" stroke-linejoin="round"/>
<path id="Vector_52" d="M109.49 173.21C107.05 175.63 104.28 177.72 101.27 179.42" stroke="white" stroke-width="4" stroke-miterlimit="10" stroke-linecap="round" stroke-linejoin="round"/>
<path id="Vector_53" d="M83.27 173.6V226.73" stroke="white" stroke-width="4" stroke-miterlimit="10" stroke-linejoin="round" stroke-dasharray="3 3"/>
<path id="Vector_54" d="M212.63 37.5449C215.435 29.838 211.461 21.3165 203.754 18.5116C196.047 15.7068 187.525 19.6806 184.721 27.3875C181.916 35.0944 185.89 43.6159 193.596 46.4207C201.303 49.2256 209.825 45.2518 212.63 37.5449Z" fill="#EF5A28"/>
<path id="Vector_55" d="M208.057 34.1152C210.862 26.4084 206.889 17.8869 199.182 15.082C191.475 12.2771 182.953 16.2509 180.148 23.9578C177.344 31.6647 181.317 40.1862 189.024 42.9911C196.731 45.7959 205.253 41.8221 208.057 34.1152Z" stroke="white" stroke-width="4" stroke-miterlimit="10" stroke-linecap="round" stroke-linejoin="round"/>
<path id="Vector_56" d="M178.33 23.06L168.33 19.42" stroke="white" stroke-width="4" stroke-miterlimit="10" stroke-linecap="round" stroke-linejoin="round"/>
<path id="Vector_57" d="M220.37 38.36L210.36 34.72" stroke="white" stroke-width="4" stroke-miterlimit="10" stroke-linecap="round" stroke-linejoin="round"/>
<path id="Vector_58" d="M188.52 44.9L184.88 54.91" stroke="white" stroke-width="4" stroke-miterlimit="10" stroke-linecap="round" stroke-linejoin="round"/>
<path id="Vector_59" d="M203.82 2.87L200.17 12.88" stroke="white" stroke-width="4" stroke-miterlimit="10" stroke-linecap="round" stroke-linejoin="round"/>
<path id="Vector_60" d="M178.9 36.09L169.25 40.59" stroke="white" stroke-width="4" stroke-miterlimit="10" stroke-linecap="round" stroke-linejoin="round"/>
<path id="Vector_61" d="M219.44 17.1899L209.79 21.6899" stroke="white" stroke-width="4" stroke-miterlimit="10" stroke-linecap="round" stroke-linejoin="round"/>
<path id="Vector_62" d="M201.55 44.33L206.05 53.98" stroke="white" stroke-width="4" stroke-miterlimit="10" stroke-linecap="round" stroke-linejoin="round"/>
<path id="Vector_63" d="M182.64 3.79004L187.15 13.45" stroke="white" stroke-width="4" stroke-miterlimit="10" stroke-linecap="round" stroke-linejoin="round"/>
</g>
</svg>
