<svg width="213" height="211" viewBox="0 0 213 211" fill="none" xmlns="http://www.w3.org/2000/svg">
<g id="Group">
<g id="Group_2">
<path id="Vector" d="M196.22 148.14C192.72 148.14 189.88 145.29 189.88 141.8C189.88 138.3 192.73 135.46 196.22 135.46C199.71 135.46 202.56 138.31 202.56 141.8C202.56 145.3 199.72 148.14 196.22 148.14ZM196.22 137.19C193.68 137.19 191.62 139.26 191.62 141.79C191.62 144.33 193.69 146.39 196.22 146.39C198.75 146.39 200.82 144.32 200.82 141.79C200.82 139.26 198.76 137.19 196.22 137.19Z" fill="#FFB10A" stroke="#FFB10A" stroke-miterlimit="10"/>
</g>
<g id="Group_3">
<path id="Vector_2" d="M190.312 143.346L169.237 154.382L170.044 155.923L191.119 144.887L190.312 143.346Z" fill="#FFB10A" stroke="#FFB10A" stroke-miterlimit="10"/>
</g>
<g id="Group_4">
<path id="Vector_3" d="M182.62 209.96H134.73C131.63 209.96 129.11 207.44 129.11 204.34V123.41C129.11 120.31 131.63 117.79 134.73 117.79H182.62C185.72 117.79 188.24 120.31 188.24 123.41V132.57H186.5V123.41C186.5 121.27 184.76 119.53 182.62 119.53H134.73C132.59 119.53 130.85 121.27 130.85 123.41V204.34C130.85 206.48 132.59 208.22 134.73 208.22H182.62C184.76 208.22 186.5 206.48 186.5 204.34V183.88H188.24V204.34C188.24 207.44 185.72 209.96 182.62 209.96Z" fill="white" stroke="white" stroke-miterlimit="10"/>
</g>
<g id="Group_5">
<path id="Vector_4" d="M160.64 175.51C153.62 175.51 147.91 169.8 147.91 162.78C147.91 155.76 153.62 150.05 160.64 150.05C167.66 150.05 173.37 155.76 173.37 162.78C173.37 169.8 167.65 175.51 160.64 175.51ZM160.64 151.79C154.58 151.79 149.65 156.72 149.65 162.78C149.65 168.84 154.58 173.77 160.64 173.77C166.7 173.77 171.63 168.84 171.63 162.78C171.63 156.72 166.7 151.79 160.64 151.79Z" fill="#FFB10A" stroke="#FFB10A" stroke-miterlimit="10"/>
</g>
<g id="Group_6">
<path id="Vector_5" d="M201.69 186.46C196.18 186.46 191.7 181.98 191.7 176.47C191.7 170.96 196.18 166.48 201.69 166.48C207.2 166.48 211.68 170.96 211.68 176.47C211.68 181.98 207.2 186.46 201.69 186.46ZM201.69 168.21C197.14 168.21 193.44 171.91 193.44 176.46C193.44 181.01 197.14 184.71 201.69 184.71C206.24 184.71 209.94 181.01 209.94 176.46C209.94 171.91 206.24 168.21 201.69 168.21Z" fill="#FFB10A" stroke="#FFB10A" stroke-miterlimit="10"/>
</g>
<g id="Group_7">
<path id="Vector_6" d="M172.777 166.547L172.092 168.146L192.165 176.749L192.85 175.149L172.777 166.547Z" fill="#FFB10A" stroke="#FFB10A" stroke-miterlimit="10"/>
</g>
<g id="Group_8">
<path id="Vector_7" d="M186.5 126.48H129.98V128.22H186.5V126.48Z" fill="white" stroke="white" stroke-miterlimit="10"/>
</g>
<g id="Group_9">
<path id="Vector_8" d="M186.5 199.52H129.98V201.26H186.5V199.52Z" fill="white" stroke="white" stroke-miterlimit="10"/>
</g>
<g id="Group_10">
<g id="Group_11">
<path id="Vector_9" d="M190.42 116.65L189.24 115.37C200.12 105.35 207.02 91.72 208.65 77C210.63 59.23 205.08 41.66 193.43 28.8L194.72 27.63C206.7 40.85 212.41 58.9199 210.38 77.1899C208.7 92.3299 201.61 106.34 190.42 116.65Z" fill="#FFB10A" stroke="#FFB10A" stroke-miterlimit="10"/>
</g>
<g id="Group_12">
<path id="Vector_10" d="M93.3401 41.4399L91.8 40.62C104.02 17.58 128.67 4.55991 154.59 7.43991C154.84 7.47991 160.04 8.23996 166.78 10.36L166.26 12.02C159.66 9.94999 154.42 9.17002 154.37 9.17002C129.19 6.37002 105.22 19.0299 93.3401 41.4399Z" fill="#FFB10A" stroke="#FFB10A" stroke-miterlimit="10"/>
</g>
<g id="Group_13">
<path id="Vector_11" d="M173.3 112.36C170.6 112.36 170.46 110.01 170.27 106.76C170.16 104.8 170 102.13 169.37 98.79C167.69 89.9 167.56 89.11 167.47 86.61C167.38 84.28 165.97 82.2 165.29 82.12L165.1 82.1C159.33 81.48 155.7 79.92 154.29 77.46C152.91 75.04 152.51 73.1 152.12 71.22C151.93 70.29 151.73 69.3401 151.41 68.3101C150.68 65.9401 152.41 64.72 154.08 63.54C155.3 62.68 156.69 61.7 157.58 60.11C159.86 56.04 164.55 55.89 168.32 55.77L169.3 55.74C171.93 55.63 174.3 57.27 175.74 58.54L175.98 54.29C175.46 53.53 173.61 51.0201 171.34 50.5601C170.34 50.3501 169.39 50.58 168.45 51.25C163.58 54.69 160.04 54.98 159.89 54.99C159.58 55.01 159.29 54.87 159.11 54.61C159 54.45 156.4 50.58 159.09 47.63C159.94 46.7 159.97 46.31 159.95 46.21C159.91 45.9 159.22 45.46 158.56 45.03C158.33 44.88 158.08 44.72 157.84 44.55C155.46 42.92 156.45 41.17 157.18 39.89C157.31 39.67 157.44 39.44 157.56 39.2C158.52 37.34 160.57 35.41 162.9 34.17C163.36 33.92 163.88 33.91 164.37 34.13C166.11 34.91 167.58 39.19 168.35 41.91C169.11 41.04 170.2 39.97 171.5 39.27C172.4 38.78 173 37.97 173.38 37.26C172.9 37.3 172.38 37.2601 171.88 37.0601C171.35 36.8401 170.65 36.34 170.3 35.2C169.35 32.1 171.19 29.87 171.79 29.14L173.13 30.25C172.27 31.29 171.36 32.74 171.96 34.7C172.14 35.3 172.44 35.43 172.54 35.47C173.16 35.73 174.15 35.32 174.39 35.2C174.69 35.04 175.05 35.07 175.32 35.27C175.59 35.47 175.72 35.81 175.65 36.14C175.62 36.27 174.95 39.3801 172.33 40.8101C170.26 41.9401 168.7 44.2999 168.68 44.3199C168.49 44.6099 168.15 44.76 167.81 44.7C167.47 44.64 167.19 44.39 167.11 44.05C166.09 39.9 164.44 35.93 163.64 35.72C161.7 36.78 159.89 38.47 159.1 40.01C158.97 40.27 158.82 40.52 158.69 40.76C157.91 42.14 157.79 42.42 158.82 43.13C159.06 43.29 159.29 43.44 159.51 43.59C160.55 44.27 161.54 44.91 161.68 46.01C161.79 46.85 161.38 47.72 160.37 48.83C159.01 50.32 159.8 52.31 160.27 53.2C161.35 52.99 164.03 52.26 167.44 49.85C168.78 48.9 170.21 48.58 171.69 48.88C175.1 49.58 177.5 53.46 177.6 53.63C177.69 53.78 177.74 53.96 177.73 54.13L177.36 60.62C177.34 60.98 177.1 61.28 176.76 61.4C176.42 61.51 176.05 61.4 175.82 61.13C175.79 61.09 172.67 57.39 169.36 57.52C169.04 57.53 168.7 57.54 168.36 57.55C164.86 57.66 160.89 57.78 159.08 61C158 62.93 156.37 64.08 155.06 65C153.31 66.24 152.72 66.76 153.05 67.83C153.39 68.93 153.6 69.93 153.8 70.9C154.18 72.73 154.54 74.45 155.78 76.63C156.54 77.97 158.81 79.71 165.26 80.4L165.46 80.42C167.43 80.64 169.08 83.9099 169.18 86.5699C169.27 88.9399 169.39 89.72 171.05 98.49C171.7 101.93 171.86 104.68 171.98 106.68C172.19 110.35 172.33 110.62 173.27 110.64C175.99 110.64 177.6 110.22 179.39 107.83C180.03 106.97 180.29 106.32 180.56 105.62C181.06 104.33 181.58 103 184.27 100.83C187.81 97.97 188.65 94.95 189.81 90.76L190.01 90.02C190.8 87.19 192.24 86.44 193.52 85.79C194.51 85.28 195.44 84.8 196.27 83.25C197.38 81.18 197.11 79.81 196.88 78.6C196.71 77.7 196.52 76.77 197.13 75.92C197.68 75.15 199.15 74.7501 201.92 74.0601C204.56 73.4001 208.56 72.41 209.06 71.09L210.68 71.71C209.85 73.88 205.86 74.87 202.33 75.75C200.87 76.11 198.87 76.61 198.52 76.95C198.37 77.16 198.44 77.55 198.58 78.27C198.83 79.54 199.2 81.46 197.8 84.08C196.71 86.1 195.38 86.79 194.31 87.34C193.13 87.95 192.27 88.39 191.68 90.49L191.48 91.22C190.28 95.55 189.34 98.9601 185.36 102.18C183.03 104.06 182.64 105.08 182.18 106.25C181.89 106.99 181.56 107.83 180.78 108.88C178.61 111.79 176.39 112.36 173.3 112.36Z" fill="#FFB10A" stroke="#FFB10A" stroke-miterlimit="10"/>
</g>
<g id="Group_14">
<path id="Vector_12" d="M116.42 53.8L115.01 52.78C116.57 50.63 116.69 50.28 116.93 49.51C117.1 48.97 117.34 48.23 118.05 46.76C119.43 43.89 120.61 43.8399 122 44.0799C122.41 44.1499 122.77 44.2099 123.17 44.0899L123.66 45.76C122.87 45.99 122.22 45.88 121.7 45.79C120.92 45.66 120.54 45.59 119.61 47.51C118.95 48.88 118.74 49.52 118.58 50.04C118.29 51 118.08 51.52 116.42 53.8Z" fill="#FFB10A" stroke="#FFB10A" stroke-miterlimit="10"/>
</g>
<g id="Group_15">
<path id="Vector_13" d="M121.98 31.22C119.41 31.22 116.31 29.91 115.16 27.51C114.24 25.6 115.49 23.74 116.59 22.1C117.14 21.28 117.7 20.44 117.97 19.66C118.59 17.84 116.86 16.55 116.78 16.5L117.79 15.09C118.78 15.8 120.44 17.78 119.61 20.23C119.27 21.23 118.64 22.17 118.03 23.08C116.91 24.74 116.27 25.82 116.72 26.77C117.63 28.66 120.39 29.65 122.43 29.47L122.58 31.2C122.39 31.21 122.19 31.22 121.98 31.22Z" fill="#FFB10A" stroke="#FFB10A" stroke-miterlimit="10"/>
</g>
</g>
<g id="Group_16">
<path id="Vector_14" d="M19.35 30.74L17.86 29.8399C21.72 23.4799 28.48 19.64 35.92 19.56C43.43 19.48 50.47 23.4 54.38 29.77L52.9 30.68C49.3 24.82 42.8 21.22 35.94 21.29C29.1 21.37 22.9 24.9 19.35 30.74Z" fill="white" stroke="white" stroke-miterlimit="10"/>
</g>
<g id="Group_17">
<path id="Vector_15" d="M27.51 37.54L26.02 36.64C28.15 33.13 31.88 31.01 35.98 30.97C40.1 30.92 44.01 33.09 46.17 36.6L44.69 37.51C42.85 34.51 39.49 32.6699 36 32.6999C32.5 32.7399 29.33 34.55 27.51 37.54Z" fill="white" stroke="white" stroke-miterlimit="10"/>
</g>
<g id="Group_18">
<path id="Vector_16" d="M11.26 22.5401L9.77002 21.6401C15.32 12.4701 25.04 6.92999 35.75 6.81999C46.58 6.70999 56.51 12.1601 62.22 21.4101L60.74 22.32C55.35 13.6 45.99 8.45011 35.76 8.56011C25.66 8.66011 16.5 13.8901 11.26 22.5401Z" fill="white" stroke="white" stroke-miterlimit="10"/>
</g>
<g id="Group_19">
<path id="Vector_17" d="M78.02 97.78C80.3 97.78 82.15 99.55 82.15 101.73V103.87H151.85C151.85 97.6 149.31 92.1099 146.46 88.1899C142.12 82.2199 132.68 77.19 123.27 78.76C119.85 61.29 105.55 50.66 86.79 50.66C67.58 50.66 51.7 64.51 48.8 82.6C46.28 81.54 43.5 80.86 40.58 80.95C29.74 81.28 21.25 88.24 17.79 97.79H78.02V97.78Z" fill="#EF5A28"/>
</g>
<g id="Group_20">
<path id="Vector_18" d="M151.69 106.48H94.32V103.87H150.54C150.62 103.12 150.66 102.43 150.66 101.77C150.66 89.66 140.81 79.8101 128.7 79.8101C127.32 79.8101 125.9 79.95 124.48 80.22C124.14 80.29 123.79 80.21 123.5 80.02C123.21 79.83 123.01 79.5299 122.95 79.1899C119.2 59.6899 102.05 45.53 82.18 45.53C61.63 45.53 44.39 60.27 41.19 80.58C41.13 80.98 40.88 81.32 40.53 81.52C40.18 81.72 39.76 81.74 39.39 81.58C36.65 80.41 33.75 79.8101 30.76 79.8101C25.31 79.8101 17.22 82.02 12.34 88.24L10.29 86.63C15.74 79.68 24.44 77.2 30.76 77.2C33.56 77.2 36.29 77.66 38.9 78.58C42.93 57.82 60.88 42.92 82.18 42.92C102.88 42.92 120.79 57.37 125.26 77.45C126.42 77.28 127.57 77.2 128.7 77.2C142.25 77.2 153.27 88.22 153.27 101.77C153.27 102.88 153.18 104.02 152.98 105.37C152.89 106 152.34 106.48 151.69 106.48Z" fill="white"/>
</g>
<g id="Group_21">
<path id="Vector_19" d="M77.97 97.78H6.32001C4.01001 97.78 2.14001 99.6 2.14001 101.84V117.19C2.14001 119.43 4.01001 121.25 6.32001 121.25H77.97C80.28 121.25 82.15 119.43 82.15 117.19V101.84C82.15 99.6 80.28 97.78 77.97 97.78Z" fill="#EF5A28"/>
</g>
<g id="Group_22">
<path id="Vector_20" d="M77.97 177.78H6.32001C4.01001 177.78 2.14001 179.6 2.14001 181.84V197.19C2.14001 199.43 4.01001 201.25 6.32001 201.25H77.97C80.28 201.25 82.15 199.43 82.15 197.19V181.84C82.15 179.6 80.28 177.78 77.97 177.78Z" fill="#EF5A28"/>
</g>
<g id="Group_23">
<path id="Vector_21" d="M79.18 163H5.98004C2.91004 163 0.400024 160.5 0.400024 157.42V141.56C0.400024 138.52 2.90003 136.04 5.97003 136.04V138.65C4.33003 138.65 3.00003 139.95 3.00003 141.56V157.42C3.00003 159.06 4.33003 160.39 5.97003 160.39H79.17C80.81 160.39 82.14 159.06 82.14 157.42V141.61C82.14 139.97 80.81 138.64 79.17 138.64H16.92V136.03H79.17C82.24 136.03 84.75 138.53 84.75 141.61V157.42C84.76 160.5 82.26 163 79.18 163Z" fill="white"/>
</g>
<g id="Group_24">
<path id="Vector_22" d="M79.18 203H5.98004C2.91004 203 0.400024 200.5 0.400024 197.42V181.61C0.400024 178.54 2.90004 176.03 5.98004 176.03H79.18C82.25 176.03 84.76 178.53 84.76 181.61V197.42C84.76 200.5 82.26 203 79.18 203ZM5.98004 178.65C4.34004 178.65 3.01004 179.98 3.01004 181.62V197.43C3.01004 199.07 4.34004 200.4 5.98004 200.4H79.18C80.82 200.4 82.15 199.07 82.15 197.43V181.62C82.15 179.98 80.82 178.65 79.18 178.65H5.98004Z" fill="white"/>
</g>
<g id="Group_25">
<path id="Vector_23" d="M79.18 123H5.98004C2.91004 123 0.400024 120.5 0.400024 117.42V101.61C0.400024 98.54 2.90004 96.03 5.98004 96.03H79.18C82.25 96.03 84.76 98.53 84.76 101.61V117.42C84.76 120.5 82.26 123 79.18 123ZM5.98004 98.65C4.34004 98.65 3.01004 99.98 3.01004 101.62V117.43C3.01004 119.07 4.34004 120.4 5.98004 120.4H79.18C80.82 120.4 82.15 119.07 82.15 117.43V101.62C82.15 99.98 80.82 98.65 79.18 98.65H5.98004Z" fill="white"/>
</g>
<g id="Group_26">
<path id="Vector_24" d="M70.97 113.28C73.1018 113.28 74.83 111.552 74.83 109.42C74.83 107.288 73.1018 105.56 70.97 105.56C68.8382 105.56 67.11 107.288 67.11 109.42C67.11 111.552 68.8382 113.28 70.97 113.28Z" fill="white"/>
</g>
<g id="Group_27">
<path id="Vector_25" d="M30.8401 108.22H10.8401V110.83H30.8401V108.22Z" fill="white"/>
</g>
<g id="Group_28">
<path id="Vector_26" d="M70.97 153.39C73.1018 153.39 74.83 151.662 74.83 149.53C74.83 147.398 73.1018 145.67 70.97 145.67C68.8382 145.67 67.11 147.398 67.11 149.53C67.11 151.662 68.8382 153.39 70.97 153.39Z" fill="white"/>
</g>
<g id="Group_29">
<path id="Vector_27" d="M30.8401 148.22H10.8401V150.83H30.8401V148.22Z" fill="white"/>
</g>
<g id="Group_30">
<path id="Vector_28" d="M70.97 193.5C73.1018 193.5 74.83 191.772 74.83 189.64C74.83 187.508 73.1018 185.78 70.97 185.78C68.8382 185.78 67.11 187.508 67.11 189.64C67.11 191.772 68.8382 193.5 70.97 193.5Z" fill="white"/>
</g>
<g id="Group_31">
<path id="Vector_29" d="M30.8401 188.22H10.8401V190.83H30.8401V188.22Z" fill="white"/>
</g>
<g id="Group_32">
<path id="Vector_30" d="M43.02 121.26H40.41V136.91H43.02V121.26Z" fill="white"/>
</g>
<g id="Group_33">
<path id="Vector_31" d="M43.02 162.13H40.41V176.91H43.02V162.13Z" fill="white"/>
</g>
<g id="Group_34">
<path id="Vector_32" d="M117.8 125.68L111.09 117.63L104.38 125.68L102.38 124.01L110.09 114.75C110.59 114.16 111.6 114.16 112.09 114.75L119.8 124.01L117.8 125.68Z" fill="white"/>
</g>
<g id="Group_35">
<path id="Vector_33" d="M111.28 192.57H92.5801V189.96H109.97V116.91H112.58V191.26C112.59 191.98 112 192.57 111.28 192.57Z" fill="white"/>
</g>
<g id="Group_36">
<path id="Vector_34" d="M110.85 148.22H92.5901V150.83H110.85V148.22Z" fill="white"/>
</g>
<g id="Group_37">
<path id="Vector_35" d="M182.53 0.97998C174.89 0.97998 168.7 7.17006 168.7 14.8101C168.7 23.9001 182.53 38.92 182.53 38.92C182.53 38.92 196.36 23.9001 196.36 14.8101C196.36 7.17006 190.17 0.97998 182.53 0.97998ZM182.53 19.51C179.67 19.51 177.34 17.1899 177.34 14.3199C177.34 11.4599 179.66 9.13 182.53 9.13C185.39 9.13 187.72 11.4499 187.72 14.3199C187.72 17.1899 185.4 19.51 182.53 19.51Z" fill="#F76341"/>
</g>
<g id="Group_38">
<path id="Vector_36" d="M133.95 28.74C129.09 28.74 125.16 32.68 125.16 37.53C125.16 43.31 133.95 52.85 133.95 52.85C133.95 52.85 142.74 43.3 142.74 37.53C142.74 32.68 138.81 28.74 133.95 28.74ZM133.95 40.52C132.13 40.52 130.65 39.04 130.65 37.22C130.65 35.4 132.13 33.92 133.95 33.92C135.77 33.92 137.25 35.4 137.25 37.22C137.25 39.05 135.77 40.52 133.95 40.52Z" fill="#1B75BA"/>
</g>
<g id="Group_39">
<path id="Vector_37" d="M36.0601 48.21C37.5015 48.21 38.6701 47.0414 38.6701 45.6C38.6701 44.1585 37.5015 42.99 36.0601 42.99C34.6186 42.99 33.4501 44.1585 33.4501 45.6C33.4501 47.0414 34.6186 48.21 36.0601 48.21Z" fill="white"/>
</g>
<g id="Group_40">
<g id="Group_41">
<path id="Vector_38" d="M12.5801 51.6899H10.8401V56.04H12.5801V51.6899Z" fill="#F76341"/>
</g>
<g id="Group_42">
<path id="Vector_39" d="M12.5801 63.87H10.8401V68.22H12.5801V63.87Z" fill="#F76341"/>
</g>
<g id="Group_43">
<path id="Vector_40" d="M7.37003 59.52H3.02002V61.26H7.37003V59.52Z" fill="#F76341"/>
</g>
<g id="Group_44">
<path id="Vector_41" d="M19.5401 59.52H15.1901V61.26H19.5401V59.52Z" fill="#F76341"/>
</g>
</g>
</g>
</svg>
