<svg width="254" height="256" viewBox="0 0 254 256" fill="none" xmlns="http://www.w3.org/2000/svg">
<g id="Group">
<path id="Vector" d="M229.77 42.85L227.48 25.59C226.93 21.41 223.36 18.28 219.14 18.28H204.56C200.34 18.28 196.77 21.4 196.22 25.59L193.93 42.85" stroke="white" stroke-width="3" stroke-miterlimit="10" stroke-linecap="round" stroke-linejoin="round"/>
<path id="Vector_2" d="M196.18 32H227.61" stroke="white" stroke-width="3" stroke-miterlimit="10" stroke-linecap="round" stroke-linejoin="round"/>
<path id="Vector_3" d="M229.77 104.43L228.17 116.49" stroke="white" stroke-width="3" stroke-miterlimit="10" stroke-linecap="round" stroke-linejoin="round"/>
<path id="Vector_4" d="M245.29 62.0499L248.51 61.34C249.38 61.15 250.25 61.7 250.44 62.57L251.86 69C252.05 69.87 251.5 70.74 250.63 70.93L247.41 71.64" stroke="#FFB10A" stroke-width="3" stroke-miterlimit="10" stroke-linecap="round" stroke-linejoin="round"/>
<path id="Vector_5" d="M243.98 89.29L247.13 90.25C247.99 90.51 248.89 90.03 249.15 89.17L251.07 82.87C251.33 82.01 250.85 81.11 249.99 80.85L246.84 79.89" stroke="#FFB10A" stroke-width="3" stroke-miterlimit="10" stroke-linecap="round" stroke-linejoin="round"/>
<path id="Vector_6" d="M190.11 46.34C195.98 41.77 203.37 39.04 211.39 39.04C230.54 39.04 246.06 54.56 246.06 73.71C246.06 92.86 230.54 108.38 211.39 108.38C208.05 108.38 204.82 107.91 201.77 107.03" stroke="#FFB10A" stroke-width="3" stroke-miterlimit="10" stroke-linecap="round" stroke-linejoin="round"/>
<path id="Vector_7" d="M193.93 53.51C198.61 49.46 204.71 47.01 211.39 47.01C226.14 47.01 238.09 58.97 238.09 73.71C238.09 88.46 226.13 100.41 211.39 100.41C206.51 100.41 201.95 99.1 198.01 96.82" stroke="white" stroke-width="3" stroke-miterlimit="10" stroke-linecap="round" stroke-linejoin="round"/>
<path id="Vector_8" d="M223.64 68.29C222.66 71.24 220.69 73.2 220.69 73.2C219.71 67.3 216.05 60.81 208.9 57.48C210.87 65.34 203.99 72.22 203.27 74.45L201.04 72.22C199.63 78.68 199.7 87.25 209.77 90.26C209.18 89.5 208.84 88.43 208.92 86.96C209.06 84.12 211.85 81.06 211.85 77.13C213.33 77.95 218.23 82.31 218.73 85.97C218.96 87.63 218.78 88.83 218.35 89.71C227.25 84.61 227.16 76.32 223.64 68.29Z" stroke="#FFB10A" stroke-width="3" stroke-miterlimit="10" stroke-linecap="round" stroke-linejoin="round"/>
<path id="Vector_9" d="M107.62 11.4299H80.7699V49.7099" stroke="white" stroke-width="3" stroke-miterlimit="10" stroke-linecap="round" stroke-linejoin="round"/>
<path id="Vector_10" d="M173.9 71.4299V11.4299H147.04" stroke="white" stroke-width="3" stroke-miterlimit="10" stroke-linecap="round" stroke-linejoin="round"/>
<path id="Vector_11" d="M173.78 72.68C171.61 73.57 169.16 72.3 168.62 70.02L165.75 56.4C164.93 52.91 161.44 50.76 157.95 51.58C154.46 52.4 152.31 55.89 153.13 59.38L157.03 77.35L157.06 78.59C157.2 85.39 159.97 91.88 164.78 96.69L165.53 97.44L167.89 104.51" stroke="white" stroke-width="3" stroke-miterlimit="10" stroke-linecap="round" stroke-linejoin="round"/>
<path id="Vector_12" d="M173.78 30.24L189.64 54.91C193.09 60.28 194.45 66.74 193.44 73.05L190.29 92.73L191.47 97.45" stroke="white" stroke-width="3" stroke-miterlimit="10" stroke-linecap="round" stroke-linejoin="round"/>
<path id="Vector_13" d="M194.654 98.073L165.619 106.633L168.365 115.947L197.4 107.387L194.654 98.073Z" stroke="white" stroke-width="3" stroke-miterlimit="10" stroke-linecap="round" stroke-linejoin="round"/>
<path id="Vector_14" d="M136.19 6.28998V1.71997H118.48V6.28998H108.76V16H145.33V6.28998H136.19Z" stroke="white" stroke-width="3" stroke-miterlimit="10" stroke-linecap="round" stroke-linejoin="round"/>
<path id="Vector_15" d="M123.62 61.14H143.04" stroke="white" stroke-width="3" stroke-miterlimit="10" stroke-linecap="round" stroke-linejoin="round"/>
<path id="Vector_16" d="M128.19 80H144.19" stroke="white" stroke-width="3" stroke-miterlimit="10" stroke-linecap="round" stroke-linejoin="round"/>
<path id="Vector_17" d="M136.76 38.8599H130.47V32.5699H123.62V38.8599H117.9V45.7099H123.62V51.4299H131.05V45.7099H136.76V38.8599Z" stroke="#FFB10A" stroke-width="3" stroke-miterlimit="10" stroke-linecap="round" stroke-linejoin="round"/>
<path id="Vector_18" d="M91.6199 51.43V22.29H161.33V51.43" stroke="white" stroke-width="3" stroke-miterlimit="10" stroke-linecap="round" stroke-linejoin="round"/>
<path id="Vector_19" d="M218.46 134.85V162.27" stroke="white" stroke-width="3" stroke-miterlimit="10" stroke-linecap="round" stroke-linejoin="round"/>
<path id="Vector_20" d="M211.32 139.08C217.76 144.05 218.64 153.71 218.64 153.71C218.64 153.71 209.08 155.3 202.64 150.33C196.2 145.36 195.32 135.7 195.32 135.7C195.32 135.7 204.88 134.11 211.32 139.08Z" stroke="white" stroke-width="3" stroke-miterlimit="10" stroke-linecap="round" stroke-linejoin="round"/>
<path id="Vector_21" d="M224.98 142.63C219.7 146.71 218.98 154.62 218.98 154.62C218.98 154.62 226.82 155.92 232.1 151.85C237.38 147.77 238.1 139.86 238.1 139.86C238.1 139.86 230.26 138.56 224.98 142.63Z" stroke="white" stroke-width="3" stroke-miterlimit="10" stroke-linecap="round" stroke-linejoin="round"/>
<path id="Vector_22" d="M109.91 173.7V122.55C109.91 120.82 111.31 119.42 113.04 119.42H246.2C247.93 119.42 249.33 120.82 249.33 122.55V210.84" stroke="white" stroke-width="3" stroke-miterlimit="10" stroke-linecap="round" stroke-linejoin="round"/>
<path id="Vector_23" d="M185.9 214.27H149.9" stroke="white" stroke-width="3" stroke-miterlimit="10" stroke-linecap="round" stroke-linejoin="round"/>
<path id="Vector_24" d="M170.21 215.18C170.21 215.18 172.32 235.42 162.12 242.76" stroke="white" stroke-width="3" stroke-miterlimit="10" stroke-linecap="round" stroke-linejoin="round"/>
<path id="Vector_25" d="M147.04 243.41H228.75" stroke="white" stroke-width="3" stroke-miterlimit="10" stroke-linecap="round" stroke-linejoin="round"/>
<path id="Vector_26" d="M137.9 201.13H196.18" stroke="white" stroke-width="3" stroke-miterlimit="10" stroke-linecap="round" stroke-linejoin="round"/>
<path id="Vector_27" d="M144.19 147.99V154.27H125.33V135.42H137.9" stroke="white" stroke-width="3" stroke-miterlimit="10" stroke-linecap="round" stroke-linejoin="round"/>
<path id="Vector_28" d="M144.19 179.41V185.7H125.33V166.84H137.9" stroke="white" stroke-width="3" stroke-miterlimit="10" stroke-linecap="round" stroke-linejoin="round"/>
<path id="Vector_29" d="M233.67 181.57C236.21 167.49 219.37 156.08 205.32 169.51C203.83 170.93 203.09 172.97 203.3 175.02C204.2 183.72 201.92 192.4 196.95 199.5L188.56 211.48C188.13 212.09 187.77 212.76 187.49 213.45C181.29 228.79 192.41 243.41 206.95 243.41H230.47C245.01 243.41 256.13 228.79 249.93 213.45C249.65 212.76 249.29 212.09 248.86 211.48C246.95 208.75 240.62 199.71 236.22 193.42C233.8 189.97 232.92 185.71 233.67 181.57Z" stroke="#FFB10A" stroke-width="3" stroke-miterlimit="10" stroke-linecap="round" stroke-linejoin="round"/>
<path id="Vector_30" d="M131.57 143.11L136.2 148.66L144.53 137.56" stroke="#FFB10A" stroke-width="3" stroke-miterlimit="10" stroke-linecap="round" stroke-linejoin="round"/>
<path id="Vector_31" d="M156.76 138.28H185.9" stroke="white" stroke-width="3" stroke-miterlimit="10" stroke-linecap="round" stroke-linejoin="round"/>
<path id="Vector_32" d="M156.47 152.56H186.75" stroke="white" stroke-width="3" stroke-miterlimit="10" stroke-linejoin="round" stroke-dasharray="3 3"/>
<path id="Vector_33" d="M131.57 174.81L136.2 180.37L144.53 169.26" stroke="#FFB10A" stroke-width="3" stroke-miterlimit="10" stroke-linecap="round" stroke-linejoin="round"/>
<path id="Vector_34" d="M156.76 170.27H185.9" stroke="white" stroke-width="3" stroke-miterlimit="10" stroke-linecap="round" stroke-linejoin="round"/>
<path id="Vector_35" d="M156.47 183.99H186.75" stroke="white" stroke-width="3" stroke-miterlimit="10" stroke-linejoin="round" stroke-dasharray="3 3"/>
<path id="Vector_36" d="M67.7899 61.86C71.2599 59.84 75.2399 58.55 79.4399 58.1" stroke="white" stroke-width="3" stroke-miterlimit="10" stroke-linecap="round" stroke-linejoin="round"/>
<path id="Vector_37" d="M107.89 69.25C114.66 77 117.11 87.47 113.32 96.79C109.79 105.48 101.59 110.93 92.1699 112.29" stroke="white" stroke-width="3" stroke-miterlimit="10" stroke-linecap="round" stroke-linejoin="round"/>
<path id="Vector_38" d="M95.9599 60.22L109.83 67.82L99.7899 70.16L98.4699 78.7L90.3199 71.1L79.1899 70.86L84.1999 63.82L78.6399 55.13L93.6999 59.09" stroke="white" stroke-width="3" stroke-miterlimit="10" stroke-linecap="round" stroke-linejoin="round"/>
<path id="Vector_39" d="M93.76 62.66C93.76 62.66 96.57 52.17 105.07 52.72" stroke="white" stroke-width="3" stroke-miterlimit="10" stroke-linecap="round" stroke-linejoin="round"/>
<path id="Vector_40" d="M67.19 57.69C72.39 70.53 25.89 89.38 20.68 76.53C15.48 63.69 21.67 49.06 34.51 43.85C47.35 38.66 61.98 44.85 67.19 57.69Z" stroke="#FFB10A" stroke-width="3" stroke-miterlimit="10" stroke-linecap="round" stroke-linejoin="round"/>
<path id="Vector_41" d="M43.9399 107.03C42.5499 105.31 41.3099 103.17 40.2699 100.59C37.9099 94.78 36.7 86.44 37.39 80.49" stroke="#FFB10A" stroke-width="3" stroke-miterlimit="10" stroke-linecap="round" stroke-linejoin="round"/>
<path id="Vector_42" d="M58.3599 73.09C63.1199 76.89 67.4499 82.66 69.8599 88.6C73.0999 96.59 72.0099 102.83 68.3799 107.03" stroke="#FFB10A" stroke-width="3" stroke-miterlimit="10" stroke-linecap="round" stroke-linejoin="round"/>
<path id="Vector_43" d="M39.08 112.6C37.46 112.54 35.15 112.19 33.49 111.89C18.78 109.31 8.51001 97.7999 8.51001 97.7999C8.51001 97.7999 22.08 90.4599 36.79 93.0299" stroke="white" stroke-width="3" stroke-miterlimit="10" stroke-linecap="round" stroke-linejoin="round"/>
<path id="Vector_44" d="M97.05 147.7H40.48V133.56C40.48 123.07 48.99 114.56 59.48 114.56H75.55C87.42 114.56 97.05 124.19 97.05 136.06V147.7Z" fill="#1B75BA"/>
<path id="Vector_45" d="M38.7699 145.42V174.09C38.7699 187.83 49.3899 199.45 63.1099 200.17C77.9299 200.94 90.1999 189.15 90.1999 174.49V145.42" stroke="white" stroke-width="4" stroke-miterlimit="10" stroke-linecap="round" stroke-linejoin="round"/>
<path id="Vector_46" d="M91.96 159.01C95.38 159.01 98.16 155.71 98.16 151.65C98.16 147.58 95.38 144.29 91.96 144.29" stroke="white" stroke-width="4" stroke-miterlimit="10" stroke-linecap="round" stroke-linejoin="round"/>
<path id="Vector_47" d="M36.91 144.41C33.49 144.41 30.71 147.71 30.71 151.77C30.71 155.84 33.49 159.13 36.91 159.13H38.2" stroke="white" stroke-width="4" stroke-miterlimit="10" stroke-linecap="round" stroke-linejoin="round"/>
<path id="Vector_48" d="M81.0499 195.13L99.1899 198.52C102.54 199 108.42 201.15 111.34 202.56" stroke="white" stroke-width="4" stroke-miterlimit="10" stroke-linecap="round" stroke-linejoin="round"/>
<path id="Vector_49" d="M57.17 163.7H50.0699C47.9299 163.7 46.1899 161.96 46.1899 159.82V156.72C46.1899 154.58 47.9299 152.84 50.0699 152.84H57.17C59.31 152.84 61.0499 154.58 61.0499 156.72V159.82C61.0499 161.97 59.32 163.7 57.17 163.7Z" stroke="white" stroke-width="4" stroke-miterlimit="10" stroke-linecap="round" stroke-linejoin="round"/>
<path id="Vector_50" d="M78.8899 163.7H71.7899C69.6499 163.7 67.9099 161.96 67.9099 159.82V156.72C67.9099 154.58 69.6499 152.84 71.7899 152.84H78.8899C81.0299 152.84 82.7699 154.58 82.7699 156.72V159.82C82.7699 161.97 81.0299 163.7 78.8899 163.7Z" stroke="white" stroke-width="4" stroke-miterlimit="10" stroke-linecap="round" stroke-linejoin="round"/>
<path id="Vector_51" d="M62.2 156.85H66.2" stroke="white" stroke-width="4" stroke-miterlimit="10" stroke-linecap="round" stroke-linejoin="round"/>
<path id="Vector_52" d="M92.4799 144.28V123.33C92.4799 115.96 86.5099 109.99 79.1399 109.99H49.2499C41.8799 109.99 35.9099 115.96 35.9099 123.33V143.7" stroke="white" stroke-width="4" stroke-miterlimit="10" stroke-linecap="round" stroke-linejoin="round"/>
<path id="Vector_53" d="M89.4699 165.93L77.2899 175.4C75.0799 171.74 70.6099 169.99 66.0299 169.99H62.8499C58.2599 169.99 53.7899 171.74 51.5899 175.4L39.4099 165.93" stroke="white" stroke-width="4" stroke-miterlimit="10" stroke-linecap="round" stroke-linejoin="round"/>
<path id="Vector_54" d="M61.0499 178.56H67.9099" stroke="white" stroke-width="4" stroke-miterlimit="10" stroke-linecap="round" stroke-linejoin="round"/>
<path id="Vector_55" d="M64.48 208.27V244.84" stroke="white" stroke-width="4" stroke-miterlimit="10" stroke-linejoin="round" stroke-dasharray="3 3"/>
<path id="Vector_56" d="M36.48 144.28H91.91" stroke="white" stroke-width="4" stroke-miterlimit="10" stroke-linecap="round" stroke-linejoin="round"/>
<path id="Vector_57" d="M64.48 121.99V135.7" stroke="white" stroke-width="4" stroke-miterlimit="10" stroke-linecap="round" stroke-linejoin="round"/>
<path id="Vector_58" d="M57.6199 128.85H71.3399" stroke="white" stroke-width="4" stroke-miterlimit="10" stroke-linecap="round" stroke-linejoin="round"/>
<path id="Vector_59" d="M150.76 252.26H2.19995V250.91V230.4C2.19995 214.47 13.9199 200.97 29.6799 198.73L49.0499 195.13" stroke="white" stroke-width="4" stroke-miterlimit="10" stroke-linecap="round" stroke-linejoin="round"/>
<path id="Vector_60" d="M131.41 205.63C127.68 205.63 124.2 206.8 121.24 208.79C118.27 206.8 114.8 205.63 111.07 205.63C100.24 205.63 91.45 215.32 91.45 227.28C91.45 240.09 101.88 255.27 114.45 255.69H127.98C140.4 255 151.04 239.97 151.04 227.28C151.02 215.33 142.24 205.63 131.41 205.63Z" fill="#EF5A28"/>
<path id="Vector_61" d="M127.4 202.21C123.67 202.21 120.19 203.38 117.23 205.37C114.26 203.38 110.79 202.21 107.06 202.21C96.2299 202.21 87.4399 211.9 87.4399 223.86C87.4399 236.67 97.8699 251.85 110.44 252.27H123.97C136.39 251.58 147.03 236.55 147.03 223.86C147.02 211.9 138.24 202.21 127.4 202.21Z" stroke="white" stroke-width="4" stroke-miterlimit="10" stroke-linecap="round" stroke-linejoin="round"/>
<path id="Vector_62" d="M117.05 180.27V204.84" stroke="white" stroke-width="4" stroke-miterlimit="10" stroke-linecap="round" stroke-linejoin="round"/>
<path id="Vector_63" d="M106.03 191.98C111.12 193.75 116.94 190.31 116.94 190.31C116.94 190.31 114.51 184 109.43 182.23C104.35 180.46 98.5199 183.9 98.5199 183.9C98.5199 183.9 100.95 190.22 106.03 191.98Z" stroke="white" stroke-width="4" stroke-miterlimit="10" stroke-linecap="round" stroke-linejoin="round"/>
<g id="Group_2">
<path id="Vector_64" d="M52.77 11.4299V18.2899" stroke="#FFB10A" stroke-width="3" stroke-miterlimit="10" stroke-linecap="round" stroke-linejoin="round"/>
<path id="Vector_65" d="M52.77 25.72V32.57" stroke="#FFB10A" stroke-width="3" stroke-miterlimit="10" stroke-linecap="round" stroke-linejoin="round"/>
<path id="Vector_66" d="M42.48 21.72H49.34" stroke="#FFB10A" stroke-width="3" stroke-miterlimit="10" stroke-linecap="round" stroke-linejoin="round"/>
<path id="Vector_67" d="M56.77 21.72H63.05" stroke="#FFB10A" stroke-width="3" stroke-miterlimit="10" stroke-linecap="round" stroke-linejoin="round"/>
</g>
</g>
</svg>
