<svg width="245" height="239" viewBox="0 0 245 239" fill="none" xmlns="http://www.w3.org/2000/svg">
<g id="Group">
<g id="Group_2">
<path id="Vector" d="M235.31 118.7C232.01 118.7 229.32 116.01 229.32 112.71C229.32 109.41 232.01 106.72 235.31 106.72C238.61 106.72 241.3 109.41 241.3 112.71C241.29 116.02 238.61 118.7 235.31 118.7ZM235.31 108.98C233.25 108.98 231.57 110.66 231.57 112.72C231.57 114.78 233.25 116.46 235.31 116.46C237.37 116.46 239.05 114.78 239.05 112.72C239.05 110.66 237.37 108.98 235.31 108.98Z" fill="#273773"/>
</g>
<g id="Group_3">
<path id="Vector_2" d="M171.76 229.43L165.66 215.85L181.8 217.88L171.76 229.43ZM169.35 218.57L172.37 225.3L177.34 219.58L169.35 218.57Z" fill="#273773"/>
</g>
<g id="Group_4">
<path id="Vector_3" d="M16.77 183.4L1.54004 170.93L2.95996 169.19L14.22 178.41L13.28 162.74L22.59 165.34L24.85 158.63L26.97 159.35L24.03 168.08L15.71 165.75L16.77 183.4Z" fill="#273773"/>
</g>
<g id="Group_5">
<g id="Group_6">
<g id="Group_7">
<path id="Vector_4" d="M212.71 237.14C201.28 237.14 191.13 228.92 189.08 217.29L191.29 216.9C193.36 228.71 204.67 236.64 216.48 234.56C222.2 233.55 227.19 230.38 230.53 225.62C233.87 220.86 235.15 215.09 234.15 209.37C232.08 197.56 220.77 189.63 208.96 191.71L208.57 189.5C221.6 187.21 234.07 195.95 236.36 208.99C237.47 215.3 236.05 221.67 232.37 226.92C228.69 232.17 223.18 235.67 216.87 236.78C215.48 237.02 214.09 237.14 212.71 237.14Z" fill="#273773"/>
</g>
<g id="Group_8">
<path id="Vector_5" d="M214.286 225.022L212.036 225.047L212.07 228.037L214.32 228.011L214.286 225.022Z" fill="#273773"/>
</g>
<g id="Group_9">
<path id="Vector_6" d="M213.667 198.045L211.417 198.067L211.453 201.807L213.703 201.785L213.667 198.045Z" fill="#273773"/>
</g>
<g id="Group_10">
<path id="Vector_7" d="M212.42 224.75C208.87 224.75 206.4 222.5 205.69 221.77L207.3 220.21C207.72 220.64 209.95 222.77 213.01 222.48C214.4 222.35 217.19 221.55 217.82 219.5C218.2 218.27 217.78 216.64 216.79 215.52C215.62 214.2 213.94 214.02 212.16 213.83C210.18 213.62 207.93 213.38 206.41 211.41C205.17 209.8 204.81 207.47 205.53 205.61C206.62 202.8 209.87 201.63 212.42 201.74C215.48 201.86 217.44 203.82 218.15 204.65L216.44 206.1C216.04 205.63 214.56 204.08 212.33 203.99C210.54 203.92 208.28 204.75 207.63 206.43C207.19 207.56 207.42 209.05 208.19 210.05C209.12 211.26 210.64 211.42 212.4 211.6C214.43 211.81 216.74 212.06 218.48 214.04C220 215.76 220.58 218.16 219.97 220.16C219.06 223.14 215.77 224.47 213.22 224.72C212.95 224.74 212.68 224.75 212.42 224.75Z" fill="#273773"/>
</g>
</g>
</g>
<path id="Vector_8" d="M209.93 167.25C209.93 168.92 212.42 170.02 213.62 168.86L222.59 160.66V170.03L206.37 186.33L204.35 188.39C203.77 188.98 203.09 189.44 202.38 189.74V141.28L196.84 137.97C201.3 137.97 208.52 136.89 209.71 142.84C209.79 143.22 209.83 143.59 209.86 143.98L209.93 167.25Z" fill="#EF5A28"/>
<path id="Vector_9" d="M55.73 162.66C70.349 162.66 82.2 150.809 82.2 136.19C82.2 121.571 70.349 109.72 55.73 109.72C41.111 109.72 29.26 121.571 29.26 136.19C29.26 150.809 41.111 162.66 55.73 162.66Z" fill="#1B75BA"/>
<path id="Vector_10" d="M177.68 191.43V189.06H138.48H108.02C108.01 189.06 82.62 189.06 82.62 189.06V192.61C82.62 199.08 88.31 203.88 95.27 203.28H95.3199L190.06 203.07C181.36 202.47 177.68 197.95 177.68 191.43Z" fill="#EF5A28"/>
<g id="Group_11">
<path id="Vector_11" d="M202.5 190.63L200.94 189.01L222.38 168.37L233.09 179.32L231.48 180.89L222.34 171.53L202.5 190.63Z" fill="#FFB10A"/>
</g>
<g id="Group_12">
<path id="Vector_12" d="M223.34 138.91H221.09V169.6H223.34V138.91Z" fill="#FFB10A"/>
</g>
<g id="Group_13">
<g id="Group_14">
<g id="Group_15">
<path id="Vector_13" d="M54.6356 149.946L54.5652 153.945L56.8147 153.985L56.8851 149.985L54.6356 149.946Z" fill="white"/>
</g>
<g id="Group_16">
<path id="Vector_14" d="M54.0628 118.645L53.9884 121.464L56.2377 121.524L56.3122 118.704L54.0628 118.645Z" fill="white"/>
</g>
<g id="Group_17">
<path id="Vector_15" d="M54.91 151.02C50 151.02 46.77 147.71 45.89 146.67L47.59 145.21C48.12 145.83 51 148.92 55.22 148.77C57.14 148.7 61.06 147.82 62.11 144.99C62.75 143.26 62.32 140.99 61.02 139.33C59.5 137.39 57.23 137.01 54.83 136.61C52.18 136.17 49.4401 135.71 47.6801 133.13C46.2401 131.01 45.96 128.05 47 125.77C48.58 122.31 52.78 121.09 56.01 121.42C59.89 121.81 62.24 124.44 63.08 125.56L61.28 126.9C60.77 126.22 58.86 123.96 55.79 123.65C53.31 123.4 50.1 124.38 49.05 126.7C48.34 128.27 48.54 130.39 49.54 131.86C50.76 133.65 52.82 133.99 55.2 134.39C57.8 134.82 60.74 135.31 62.8 137.94C64.56 140.19 65.13 143.34 64.23 145.77C62.76 149.71 57.9301 150.92 55.3101 151.01C55.1701 151.02 55.04 151.02 54.91 151.02Z" fill="white"/>
</g>
</g>
</g>
<g id="Group_18">
<path id="Vector_16" d="M219.59 81.28H217.34V75.85C217.34 72.17 214.6 68.99 210.97 68.45C210.62 68.39 210.28 68.36 209.86 68.36C205.73 68.36 202.38 71.72 202.38 75.84V81.27H200.13V75.84C200.13 70.47 204.49 66.11 209.86 66.11C210.42 66.11 210.89 66.15 211.33 66.23C216.02 66.92 219.59 71.06 219.59 75.84V81.28Z" fill="#FFB10A"/>
</g>
<g id="Group_19">
<g id="Group_20">
<path id="Vector_17" d="M103.58 186.81H101.33V76.05C101.12 72.71 101.89 70.01 103.56 68.32C104.98 66.88 106.94 66.2 109.4 66.31H208.35V68.56H109.35C107.5 68.48 106.11 68.93 105.16 69.9C103.95 71.13 103.4 73.23 103.57 75.99L103.58 186.81Z" fill="#FFB10A"/>
</g>
<g id="Group_21">
<path id="Vector_18" d="M202.38 76.0399H200.13V114.96H202.38V76.0399Z" fill="#FFB10A"/>
</g>
<g id="Group_22">
<path id="Vector_19" d="M188.63 204.53V202.28C194.97 202.28 200.13 197.12 200.13 190.78V142.98L189 136.34C184.52 133.7 183 127.9 185.62 123.41C187.31 120.53 190.45 118.74 193.81 118.74C195.46 118.74 197.1 119.18 198.55 120.02L201.95 122.02L218.47 131.69C221.35 133.38 223.14 136.51 223.14 139.86H220.89C220.89 137.3 219.53 134.91 217.33 133.63L197.41 121.96C196.31 121.32 195.06 120.98 193.8 120.98C191.23 120.98 188.83 122.34 187.55 124.54C185.55 127.96 186.71 132.39 190.13 134.41L202.36 141.71V190.78C202.38 198.37 196.21 204.53 188.63 204.53Z" fill="#FFB10A"/>
</g>
</g>
<g id="Group_23">
<path id="Vector_20" d="M219.59 89.56L206.58 89.24L206.64 87L217.34 87.26V81.28H219.59V89.56Z" fill="#FFB10A"/>
</g>
<g id="Group_24">
<path id="Vector_21" d="M189.31 204.79C189.09 204.79 188.87 204.78 188.65 204.77H96.4C87.76 204.61 82.62 200.24 82.62 193.08V187.55H178.42V191.23C178.42 194.39 179.72 197.44 181.98 199.58C183.85 201.36 186.21 202.38 188.72 202.52H189.95L190.01 204.76C189.78 204.79 189.55 204.79 189.31 204.79ZM84.87 189.81V193.09C84.87 201.11 92.1101 202.45 96.4301 202.53H182.05C181.49 202.14 180.95 201.7 180.44 201.22C177.73 198.65 176.18 195.02 176.18 191.24V189.81H84.87Z" fill="#FFB10A"/>
</g>
<g id="Group_25">
<path id="Vector_22" d="M136.79 49.86C129.51 46.93 121.8 45.44 113.88 45.44C110.97 45.44 108.04 45.65 105.18 46.05L104.86 43.83C107.83 43.41 110.86 43.2 113.88 43.2C122.09 43.2 130.08 44.74 137.63 47.78L136.79 49.86Z" fill="#FFB10A"/>
</g>
<g id="Group_26">
<path id="Vector_23" d="M54.9399 89.6299L52.78 88.9999C54.02 84.7399 55.72 80.5899 57.83 76.6699L59.8101 77.7399C57.7701 81.5199 56.1399 85.5199 54.9399 89.6299Z" fill="#FFB10A"/>
</g>
<g id="Group_27">
<path id="Vector_24" d="M125.18 55.4299L124.22 53.3999L135.71 47.9499L129.88 35.6499L131.91 34.6899L138.7 49.0199L125.18 55.4299Z" fill="#FFB10A"/>
</g>
<g id="Group_28">
<g id="Group_29">
<path id="Vector_25" d="M115.81 223.06C99.2601 223.06 82.86 216.67 70.67 204.48C64.87 198.68 60.31 191.94 57.12 184.45L59.1899 183.57C62.2699 190.79 66.67 197.29 72.27 202.89C91.45 222.07 121.44 226.36 145.19 213.32L146.27 215.29C136.73 220.52 126.24 223.06 115.81 223.06Z" fill="#FFB10A"/>
</g>
<g id="Group_30">
<path id="Vector_26" d="M53.6899 197.72L51.6 196.91L57.3199 182.13L71.27 187.53L70.46 189.62L58.6 185.03L53.6899 197.72Z" fill="#FFB10A"/>
</g>
</g>
<g id="Group_31">
<path id="Vector_27" d="M176.18 139.66H116.3V141.91H176.18V139.66Z" fill="#FFB10A"/>
</g>
<g id="Group_32">
<path id="Vector_28" d="M181.42 154.63H116.3V156.88H181.42V154.63Z" fill="#FFB10A"/>
</g>
<g id="Group_33">
<path id="Vector_29" d="M181.42 170.35H162.71V172.6H181.42V170.35Z" fill="#FFB10A"/>
</g>
<g id="Group_34">
<path id="Vector_30" d="M143.24 170.35H116.3V172.6H143.24V170.35Z" fill="#FFB10A"/>
</g>
<g id="Group_35">
<path id="Vector_31" d="M76.38 164.82L75.03 163.02C75.8 162.44 76.56 161.83 77.27 161.19L78.76 162.87C78 163.55 77.2 164.21 76.38 164.82ZM80.99 160.72L79.36 159.17C80.02 158.47 80.66 157.74 81.27 156.99L83.02 158.39C82.37 159.2 81.69 159.98 80.99 160.72ZM84.84 155.91L82.98 154.66C83.52 153.86 84.03 153.03 84.49 152.19L86.45 153.28C85.96 154.17 85.41 155.06 84.84 155.91ZM87.84 150.51L85.79 149.59C86.18 148.71 86.54 147.81 86.86 146.9L88.98 147.64C88.64 148.61 88.25 149.58 87.84 150.51ZM89.87 144.68L87.6899 144.12C87.9299 143.19 88.13 142.23 88.29 141.28L90.5 141.65C90.34 142.67 90.13 143.69 89.87 144.68ZM90.89 138.59L88.65 138.41C88.73 137.48 88.76 136.54 88.76 135.61V135.51H91.01V135.59C91.01 136.6 90.97 137.61 90.89 138.59ZM88.64 132.62C88.56 131.66 88.43 130.69 88.27 129.75L90.48 129.37C90.65 130.38 90.79 131.41 90.88 132.43L88.64 132.62ZM87.65 126.92C87.41 125.99 87.12 125.06 86.8 124.15L88.92 123.4C89.26 124.37 89.57 125.36 89.83 126.35L87.65 126.92ZM85.71 121.46C85.31 120.59 84.87 119.72 84.4 118.88L86.36 117.78C86.86 118.68 87.33 119.6 87.76 120.53L85.71 121.46ZM82.88 116.42C82.34 115.62 81.76 114.84 81.15 114.09L82.9 112.68C83.55 113.48 84.16 114.31 84.74 115.16L82.88 116.42ZM79.24 111.92C78.57 111.22 77.87 110.55 77.15 109.91L78.63 108.23C79.4 108.91 80.15 109.62 80.86 110.37L79.24 111.92ZM74.9 108.09C74.13 107.52 73.32 106.97 72.5 106.46L73.6801 104.55C74.5501 105.09 75.41 105.67 76.24 106.28L74.9 108.09ZM34.29 108L32.96 106.19C33.79 105.58 34.65 105 35.52 104.47L36.6899 106.39C35.8699 106.89 35.06 107.43 34.29 108ZM69.97 105.04C69.11 104.61 68.23 104.2 67.33 103.84L68.17 101.76C69.12 102.14 70.07 102.57 70.98 103.04L69.97 105.04ZM39.23 104.98L38.22 102.97C39.14 102.51 40.09 102.08 41.04 101.71L41.87 103.8C40.98 104.15 40.09 104.55 39.23 104.98ZM64.6 102.88C63.68 102.6 62.74 102.35 61.8 102.15L62.27 99.9599C63.27 100.18 64.28 100.44 65.26 100.74L64.6 102.88ZM44.6 102.84L43.95 100.69C44.93 100.39 45.9399 100.13 46.9399 99.9199L47.4 102.12C46.47 102.32 45.53 102.56 44.6 102.84ZM58.9399 101.66C57.9899 101.54 57.02 101.45 56.05 101.41L56.15 99.1699C57.18 99.2099 58.21 99.2999 59.22 99.4299L58.9399 101.66ZM50.27 101.64L49.99 99.4099C51.01 99.2799 52.0399 99.1999 53.0699 99.1599L53.16 101.4C52.19 101.44 51.22 101.52 50.27 101.64Z" fill="#FFB10A"/>
</g>
<g id="Group_36">
<g id="Group_37">
<path id="Vector_32" d="M168.46 121.64L167.15 119.82C176.14 113.35 184.02 81.41 184.1 81.09L186.28 81.62C185.95 82.96 178.12 114.69 168.46 121.64Z" fill="#273773"/>
</g>
<g id="Group_38">
<path id="Vector_33" d="M162.22 122.54C157.46 120.78 153.74 114.08 150.14 107.61C146.93 101.84 143.61 95.87 140.02 94.32L140.91 92.26C145.21 94.11 148.56 100.14 152.1 106.52C155.5 112.64 159.02 118.97 163 120.44L162.22 122.54Z" fill="#273773"/>
</g>
<g id="Group_39">
<path id="Vector_34" d="M115.28 122.65L113.88 120.89C118.94 116.87 122.2 110.62 125.07 105.1C127.94 99.58 130.42 94.82 134.18 92.74L135.27 94.7C132.1 96.46 129.76 100.94 127.06 106.14C124.09 111.86 120.71 118.34 115.28 122.65Z" fill="#273773"/>
</g>
<g id="Group_40">
<path id="Vector_35" d="M137.98 116.75C133.56 116.75 130.19 113.18 126.62 109.4C122.97 105.54 119.2 101.54 114.27 101.54V99.29C120.16 99.29 124.46 103.84 128.25 107.85C131.48 111.27 134.53 114.49 137.98 114.49C141.23 114.49 144.98 107.64 148.61 101.02C153.26 92.54 158.06 83.77 164.24 83.77C170 83.77 173.39 89.29 176.67 94.63C179.91 99.91 182.97 104.89 187.96 104.89V107.14C181.71 107.14 178.17 101.38 174.76 95.8C171.67 90.77 168.75 86.01 164.25 86.01C159.4 86.01 154.72 94.56 150.59 102.1C146.28 109.97 142.56 116.75 137.98 116.75Z" fill="#273773"/>
</g>
<g id="Group_41">
<path id="Vector_36" d="M187.59 85.95L185.3 81.54L181 83.86L179.94 81.88L186.24 78.49L189.58 84.91L187.59 85.95Z" fill="#273773"/>
</g>
<g id="Group_42">
<path id="Vector_37" d="M165.33 125.44C163.06 125.44 161.21 123.59 161.21 121.32C161.21 119.05 163.06 117.2 165.33 117.2C167.6 117.2 169.45 119.05 169.45 121.32C169.45 123.59 167.6 125.44 165.33 125.44ZM165.33 119.45C164.3 119.45 163.46 120.29 163.46 121.32C163.46 122.35 164.3 123.19 165.33 123.19C166.36 123.19 167.2 122.35 167.2 121.32C167.2 120.29 166.36 119.45 165.33 119.45Z" fill="#273773"/>
</g>
<g id="Group_43">
<path id="Vector_38" d="M137.63 97C135.36 97 133.51 95.15 133.51 92.88C133.51 90.61 135.36 88.76 137.63 88.76C139.9 88.76 141.75 90.61 141.75 92.88C141.75 95.15 139.9 97 137.63 97ZM137.63 91.01C136.6 91.01 135.76 91.85 135.76 92.88C135.76 93.91 136.6 94.75 137.63 94.75C138.66 94.75 139.5 93.91 139.5 92.88C139.51 91.85 138.67 91.01 137.63 91.01Z" fill="#273773"/>
</g>
</g>
<g id="Group_44">
<g id="Group_45">
<g id="Group_46">
<path id="Vector_39" d="M46.2007 66.2659L40.6178 71.7977L42.2013 73.3959L47.7843 67.864L46.2007 66.2659Z" fill="#273773"/>
</g>
<g id="Group_47">
<path id="Vector_40" d="M34.7414 54.6924L29.1584 60.2242L30.742 61.8224L36.3249 56.2906L34.7414 54.6924Z" fill="#273773"/>
</g>
<g id="Group_48">
<path id="Vector_41" d="M39.59 85.1699L17.66 63.0399L25.62 55.1599L47.55 77.2899L39.59 85.1699ZM20.84 63.0499L39.61 81.9899L44.38 77.2699L25.61 58.3299L20.84 63.0499Z" fill="#273773"/>
</g>
<g id="Group_49">
<path id="Vector_42" d="M20.21 92.8499C18.98 92.8399 17.84 92.3699 16.99 91.5099L10.33 84.7899C8.56998 83.0099 8.58001 80.1299 10.36 78.3699L22.1601 66.4199L23.76 67.9999L11.95 79.9599C11.04 80.8599 11.0401 82.3099 11.9301 83.2099L18.59 89.9299C19.02 90.3699 19.6 90.6099 20.21 90.6099C20.81 90.5899 21.4 90.3799 21.83 89.9499L33.63 77.9999L35.23 79.5799L23.4201 91.5399C22.5401 92.3799 21.41 92.8499 20.21 92.8499Z" fill="#273773"/>
</g>
<g id="Group_50">
<path id="Vector_43" d="M66.3 73.86C56.86 73.86 47.43 70.25 40.28 63.03C26.07 48.68 26.18 25.45 40.52 11.24C54.87 -2.97002 78.1 -2.86003 92.31 11.48C106.52 25.83 106.41 49.06 92.0699 63.27C84.9499 70.33 75.62 73.86 66.3 73.86ZM41.88 61.45C55.22 74.92 77.03 75.02 90.49 61.68C97.01 55.22 100.63 46.6 100.67 37.42C100.71 28.24 97.18 19.59 90.72 13.07C77.38 -0.400021 55.57 -0.500031 42.11 12.84C28.64 26.17 28.54 47.98 41.88 61.45ZM66.31 65.31C66.26 65.31 66.22 65.31 66.17 65.31C58.67 65.27 51.64 62.32 46.37 57C35.48 46.01 35.56 28.21 46.56 17.32C57.55 6.42998 75.35 6.50997 86.24 17.51C97.13 28.5 97.05 46.3 86.05 57.19C80.76 62.43 73.75 65.31 66.31 65.31ZM48.13 18.92C43.23 23.77 40.52 30.24 40.48 37.14C40.45 44.04 43.0999 50.53 47.9499 55.43C52.7999 60.33 59.27 63.04 66.17 63.08C73.05 63.08 79.5599 60.46 84.4599 55.6C94.5699 45.58 94.65 29.21 84.63 19.09C74.62 8.96997 58.25 8.89997 48.13 18.92Z" fill="#273773"/>
</g>
</g>
</g>
<g id="Group_51">
<g id="Group_52">
<path id="Vector_44" d="M57.92 49.0999H48.1899V26.6499H57.92V49.0999ZM50.4399 46.8499H55.6801V28.8899H50.4399V46.8499Z" fill="#FFB10A"/>
</g>
<g id="Group_53">
<path id="Vector_45" d="M72.14 49.0999H62.41V19.1599H72.14V49.0999ZM64.66 46.8499H69.9V21.3999H64.66V46.8499Z" fill="#FFB10A"/>
</g>
<g id="Group_54">
<path id="Vector_46" d="M84.87 49.0999H75.14V31.8899H84.87V49.0999ZM77.38 46.8499H82.62V34.1299H77.38V46.8499Z" fill="#FFB10A"/>
</g>
</g>
<g id="Group_55">
<g id="Group_56">
<path id="Vector_47" d="M244.29 55.8399H158.22V33.3799H160.46V53.5899H242.04V7.92993H159.71V5.68994H244.29V55.8399Z" fill="#273773"/>
</g>
<g id="Group_57">
<g id="Group_58">
<g id="Group_59">
<path id="Vector_48" d="M123.04 25.8999H115.83C113.62 25.8999 111.82 24.0999 111.82 21.8899V16.4399C111.82 14.2299 113.62 12.4299 115.83 12.4299H123.04V25.8999ZM115.82 14.6699C114.85 14.6699 114.05 15.4599 114.05 16.4399V21.8899C114.05 22.8599 114.84 23.6599 115.82 23.6599H120.79V14.6799H115.82V14.6699Z" fill="#273773"/>
</g>
<g id="Group_60">
<path id="Vector_49" d="M177.08 25.8999H123.04V23.6499H176.54L185.47 19.1599L176.54 14.6699H123.79V12.4199H177.08L190.47 19.1599L177.08 25.8999Z" fill="#273773"/>
</g>
<g id="Group_61">
<path id="Vector_50" d="M191.15 18.4099H187.41V20.6599H191.15V18.4099Z" fill="#273773"/>
</g>
</g>
<g id="Group_62">
<path id="Vector_51" d="M177.68 13.9199H175.43V22.1499H177.68V13.9199Z" fill="#273773"/>
</g>
</g>
</g>
<g id="Group_63">
<path id="Vector_52" d="M224.82 40.26C223.18 40.26 222.55 38.56 222.05 37.19C221.88 36.72 221.61 35.99 221.38 35.68C221.16 35.99 220.89 36.72 220.71 37.19C220.21 38.56 219.58 40.26 217.94 40.26C216.3 40.26 215.67 38.56 215.17 37.19C215 36.72 214.73 35.99 214.51 35.68C214.29 35.99 214.02 36.72 213.85 37.19C213.35 38.56 212.72 40.26 211.08 40.26C209.44 40.26 208.81 38.56 208.31 37.19C208.11 36.64 207.77 35.72 207.53 35.56C207.54 35.57 207.59 35.59 207.64 35.59V33.34C209.28 33.34 209.91 35.04 210.41 36.41C210.58 36.88 210.85 37.61 211.07 37.92C211.29 37.61 211.56 36.88 211.73 36.41C212.23 35.04 212.86 33.34 214.5 33.34C216.14 33.34 216.77 35.04 217.27 36.41C217.44 36.88 217.71 37.61 217.93 37.92C218.15 37.61 218.42 36.88 218.6 36.41C219.1 35.04 219.73 33.34 221.37 33.34C223.01 33.34 223.64 35.04 224.14 36.41C224.34 36.96 224.68 37.88 224.92 38.04C224.91 38.03 224.86 38.01 224.81 38.01V40.26H224.82Z" fill="#FFB10A"/>
</g>
<g id="Group_64">
<path id="Vector_53" d="M195.34 43.2C193.48 43.2 192.15 41.6 191.56 40.16C190.59 37.81 190.68 34.95 191.8 32.32C192.7 30.19 194.27 28.16 196.46 26.3C197.21 25.66 197.94 25.12 198.67 24.66C198.56 24.23 198.44 23.8 198.3 23.38C197.71 21.55 196.92 20.46 195.94 20.15L196.62 18.01C198.33 18.56 199.62 20.13 200.44 22.69C200.54 23 200.63 23.3 200.72 23.61C200.91 23.54 201.1 23.47 201.28 23.4C202.68 22.94 203.94 22.88 205.02 23.24C206.24 23.65 207.31 24.63 207.95 25.93C208.43 26.9 208.69 28.02 208.77 29.45C209 33.36 207.8 37.4 205.47 40.55L203.66 39.22C205.68 36.49 206.72 32.98 206.52 29.59C206.45 28.46 206.26 27.62 205.93 26.93C205.55 26.16 204.96 25.59 204.31 25.38C203.7 25.18 202.92 25.23 201.99 25.54C201.73 25.62 201.48 25.72 201.22 25.84C201.89 29.6 201.67 33.53 200.57 37.19C200.02 39.02 199.36 40.37 198.48 41.46C197.63 42.52 196.67 43.1 195.64 43.19C195.54 43.19 195.44 43.2 195.34 43.2ZM199.14 27.05C198.74 27.33 198.34 27.65 197.92 28.01C196 29.65 194.63 31.4 193.87 33.2C192.98 35.28 192.9 37.51 193.64 39.31C193.99 40.17 194.73 41.01 195.44 40.95C195.94 40.9 196.42 40.43 196.74 40.04C197.43 39.19 197.96 38.08 198.43 36.54C199.34 33.48 199.58 30.21 199.14 27.05Z" fill="#FFB10A"/>
</g>
<g id="Group_65">
<g id="Group_66">
<path id="Vector_54" d="M150.73 238.46H102.63L109.19 225.33L111.2 226.33L106.26 236.21H150.73V238.46Z" fill="#273773"/>
</g>
<g id="Group_67">
<path id="Vector_55" d="M158.7 238.46H110.32V236.21H155.07L150.13 226.33L152.14 225.33L158.7 238.46Z" fill="#273773"/>
</g>
<g id="Group_68">
<path id="Vector_56" d="M106.78 238.46H50.9399L63.67 213.01H78.88V215.26H65.0601L54.58 236.21H103.15L97.54 225L99.55 223.99L106.78 238.46Z" fill="#273773"/>
</g>
<g id="Group_69">
<path id="Vector_57" d="M78.88 215.26H24.98L37.71 189.81H48.9399V192.05H39.1L28.62 213.01H78.88V215.26Z" fill="#273773"/>
</g>
<g id="Group_70">
<path id="Vector_58" d="M56.05 238.46H0.209961L12.9301 213.01H43.3199L56.05 238.46ZM3.84998 236.21H52.42L41.9399 215.25H14.33L3.84998 236.21Z" fill="#273773"/>
</g>
</g>
</g>
</svg>
