<svg width="212" height="209" viewBox="0 0 212 209" fill="none" xmlns="http://www.w3.org/2000/svg">
<g id="Group">
<g id="Group_2">
<g id="Group_3">
<path id="Vector" d="M197.64 130.21H195.95V134.44H197.64V130.21Z" fill="#273773"/>
</g>
<g id="Group_4">
<path id="Vector_2" d="M197.64 141.21H195.95V144.6H197.64V141.21Z" fill="#273773"/>
</g>
<g id="Group_5">
<path id="Vector_3" d="M193.41 136.13H189.18V137.82H193.41V136.13Z" fill="#273773"/>
</g>
<g id="Group_6">
<path id="Vector_4" d="M204.41 136.13H200.18V137.82H204.41V136.13Z" fill="#273773"/>
</g>
</g>
<g id="Group_7">
<path id="Vector_5" d="M167.18 107.36H130.79V109.05H167.18V107.36Z" fill="#273773"/>
</g>
<g id="Group_8">
<path id="Vector_6" d="M168.03 100.59H117.25V102.28H168.03V100.59Z" fill="#273773"/>
</g>
<g id="Group_9">
<path id="Vector_7" d="M190.88 37.11H90.17V38.8H190.88V37.11Z" fill="#273773"/>
</g>
<g id="Group_10">
<path id="Vector_8" d="M159.56 101.43H157.87V94.66C157.87 94.19 158.25 93.81 158.72 93.81H162.53C164.16 93.81 165.49 92.48 165.49 90.85V49.38C165.49 47.75 164.16 46.42 162.53 46.42H158.72C158.25 46.42 157.87 46.04 157.87 45.57V37.95H159.56V44.72H162.52C165.09 44.72 167.17 46.81 167.17 49.37V90.84C167.17 93.41 165.08 95.49 162.52 95.49H159.56V101.43Z" fill="#273773"/>
</g>
<g id="Group_11">
<path id="Vector_9" d="M102.86 76.04H101.17V51.89C101.17 48.88 98.72 46.42 95.7 46.42H94.4C93.93 46.42 93.55 46.04 93.55 45.57V37.95H95.24V44.72H95.7C99.65 44.72 102.86 47.93 102.86 51.88V76.04Z" fill="#273773"/>
</g>
<g id="Group_12">
<path id="Vector_10" d="M124.02 100.59H122.33V95.51H119.37C116.8 95.51 114.72 93.42 114.72 90.86V49.39C114.72 46.82 116.81 44.74 119.37 44.74H122.33V37.97H124.02V45.59C124.02 46.06 123.64 46.44 123.17 46.44H119.36C117.73 46.44 116.4 47.77 116.4 49.4V90.87C116.4 92.5 117.73 93.83 119.36 93.83H123.17C123.64 93.83 124.02 94.21 124.02 94.68V100.59Z" fill="#273773"/>
</g>
<g id="Group_13">
<path id="Vector_11" d="M198.64 30.34H107.94V28.65H194.91L140.58 2.64L86.25 28.65H100.33V30.34H82.53C82.13 30.34 81.7899 30.07 81.6999 29.68C81.6099 29.29 81.8 28.9 82.16 28.73L140.22 0.929973C140.45 0.819973 140.72 0.819973 140.95 0.929973L199.01 28.73C199.37 28.9 199.56 29.3 199.47 29.68C199.38 30.07 199.04 30.34 198.64 30.34Z" fill="#273773"/>
</g>
<g id="Group_14">
<path id="Vector_12" d="M140.58 21.56C137.73 21.56 135.41 19.24 135.41 16.39C135.41 13.54 137.73 11.22 140.58 11.22C143.43 11.22 145.75 13.54 145.75 16.39C145.75 19.25 143.43 21.56 140.58 21.56ZM140.58 12.92C138.66 12.92 137.1 14.48 137.1 16.4C137.1 18.32 138.66 19.88 140.58 19.88C142.5 19.88 144.06 18.32 144.06 16.4C144.06 14.48 142.5 12.92 140.58 12.92Z" fill="#273773"/>
</g>
<g id="Group_15">
<path id="Vector_13" d="M149.41 100.01H147.72V78.81C147.72 76.72 146.81 74.74 145.23 73.37C143.63 71.98 141.57 71.39 139.44 71.7C135.95 72.2 133.33 75.37 133.33 79.06V94.09H131.64V79.06C131.64 74.53 134.89 70.65 139.2 70.03C141.78 69.66 144.38 70.41 146.34 72.1C148.29 73.79 149.41 76.24 149.41 78.82V100.01Z" fill="#FFB10A"/>
</g>
<g id="Group_16">
<path id="Vector_14" d="M128.25 62.5H126.56V52.34H124.02V50.65H127.41C127.88 50.65 128.26 51.03 128.26 51.5V62.5H128.25Z" fill="#FFB10A"/>
</g>
<g id="Group_17">
<path id="Vector_15" d="M157.02 63.35H151.1C150.63 63.35 150.25 62.97 150.25 62.5V51.5C150.25 51.03 150.63 50.65 151.1 50.65H157.02C157.49 50.65 157.87 51.03 157.87 51.5V62.5C157.87 62.97 157.49 63.35 157.02 63.35ZM151.95 61.66H156.18V52.35H151.95V61.66Z" fill="#FFB10A"/>
</g>
<g id="Group_18">
<path id="Vector_16" d="M142.64 63.35H136.72C136.25 63.35 135.87 62.97 135.87 62.5V51.5C135.87 51.03 136.25 50.65 136.72 50.65H142.64C143.11 50.65 143.49 51.03 143.49 51.5V62.5C143.48 62.97 143.1 63.35 142.64 63.35ZM137.56 61.66H141.79V52.35H137.56V61.66Z" fill="#FFB10A"/>
</g>
<g id="Group_19">
<path id="Vector_17" d="M179.87 77.74H178.18V50.66C178.18 47.39 180.84 44.74 184.1 44.74H185.79V37.97H187.48V45.59C187.48 46.06 187.1 46.44 186.63 46.44H184.09C181.76 46.44 179.86 48.34 179.86 50.67V77.74H179.87Z" fill="#273773"/>
</g>
<g id="Group_20">
<path id="Vector_18" d="M199.1 117.95V116.26C204.53 116.26 209.48 111.41 209.48 106.07C209.48 102.26 207.23 98.78 203.74 97.22C203.51 97.12 203.34 96.92 203.27 96.68C203.2 96.44 203.24 96.18 203.38 95.97C204.08 94.94 204.45 93.74 204.45 92.5C204.45 89.09 201.67 86.31 198.26 86.31C198.12 86.31 197.98 86.32 197.85 86.33C197.47 86.36 197.07 86.13 196.95 85.77C195.8 82.48 192.69 80.28 189.22 80.28H188.21C184.74 80.28 181.63 82.49 180.48 85.77C180.35 86.13 180 86.36 179.62 86.33C179.44 86.32 179.3 86.31 179.16 86.31C175.75 86.31 172.97 89.09 172.97 92.5C172.97 93.74 173.34 94.95 174.04 95.97C174.18 96.18 174.22 96.44 174.15 96.68C174.08 96.92 173.91 97.12 173.68 97.22C170.19 98.79 167.94 102.26 167.94 106.07C167.94 111.78 171.95 116.26 177.08 116.26V117.95C171.01 117.95 166.25 112.73 166.25 106.07C166.25 101.91 168.54 98.09 172.14 96.09C171.57 94.98 171.27 93.75 171.27 92.49C171.27 88.16 174.78 84.63 179.1 84.61C180.64 80.98 184.22 78.58 188.2 78.58H189.21C193.19 78.58 196.77 80.98 198.31 84.61C202.63 84.64 206.14 88.16 206.14 92.49C206.14 93.75 205.84 94.98 205.27 96.09C208.88 98.08 211.16 101.91 211.16 106.07C211.18 112.29 205.42 117.95 199.1 117.95Z" fill="#FFB10A"/>
</g>
<g id="Group_21">
<path id="Vector_19" d="M196.344 100.251L186.759 105.73L187.597 107.197L197.182 101.719L196.344 100.251Z" fill="#FFB10A"/>
</g>
<g id="Group_22">
<path id="Vector_20" d="M187.49 92.12H185.8V116.66H187.49V92.12Z" fill="#FFB10A"/>
</g>
<g id="Group_23">
<path id="Vector_21" d="M177.534 104.049L176.52 105.401L186.4 112.811L187.414 111.459L177.534 104.049Z" fill="#FFB10A"/>
</g>
<g id="Group_24">
<path id="Vector_22" d="M210.91 116.39H166.06V118.08H210.91V116.39Z" fill="#FFB10A"/>
</g>
<g id="Group_25">
<path id="Vector_23" d="M58.63 107.36L66.36 164.04L105.01 107.36H58.63Z" fill="#1B75BA"/>
</g>
<g id="Group_26">
<path id="Vector_24" d="M46.22 81.12L57.65 98.89H109.69L91.92 81.12H46.22Z" fill="#1B75BA"/>
</g>
<g id="Group_27">
<path id="Vector_25" d="M54.2 150.52H2.15002V132.74H41.51L54.2 150.52Z" fill="#EF5A28"/>
</g>
<g id="Group_28">
<path id="Vector_26" d="M77.05 150.52H129.1V132.74H89.74L77.05 150.52Z" fill="#EF5A28"/>
</g>
<g id="Group_29">
<path id="Vector_27" d="M125.06 208.91H7.03003C3.41003 208.91 0.459961 205.96 0.459961 202.34V124.08C0.459961 120.46 3.41003 117.51 7.03003 117.51H25.85V120.05H7.03003C4.81003 120.05 3 121.86 3 124.08V202.34C3 204.56 4.81003 206.37 7.03003 206.37H125.06C127.28 206.37 129.09 204.56 129.09 202.34V124.08C129.09 121.86 127.28 120.05 125.06 120.05H107.09V117.51H125.06C128.68 117.51 131.63 120.46 131.63 124.08V202.34C131.64 205.96 128.69 208.91 125.06 208.91Z" fill="#FFB10A"/>
</g>
<g id="Group_30">
<path id="Vector_28" d="M54.2 183.52H12.73C12.03 183.52 11.46 182.95 11.46 182.25V167.86C11.46 167.16 12.03 166.59 12.73 166.59H54.2C54.9 166.59 55.47 167.16 55.47 167.86V182.25C55.47 182.95 54.9 183.52 54.2 183.52ZM14 180.98H52.9301V169.13H14V180.98Z" fill="#EF5A28"/>
</g>
<g id="Group_31">
<path id="Vector_29" d="M117.25 166.6H87.63V169.14H117.25V166.6Z" fill="#EF5A28"/>
</g>
<g id="Group_32">
<path id="Vector_30" d="M105.4 180.98H87.63V183.52H105.4V180.98Z" fill="#EF5A28"/>
</g>
<g id="Group_33">
<path id="Vector_31" d="M111.79 100.59H19.66C19.15 100.59 18.69 100.29 18.49 99.82C18.29 99.35 18.39 98.81 18.74 98.44L37.45 78.98C37.69 78.73 38.02 78.59 38.37 78.59H93.07C93.42 78.59 93.75 78.73 93.99 78.98L112.7 98.44C113.05 98.81 113.15 99.35 112.95 99.82C112.75 100.28 112.29 100.59 111.79 100.59ZM22.63 98.05H108.8L92.53 81.12H38.91L22.63 98.05Z" fill="#FFB10A"/>
</g>
<g id="Group_34">
<path id="Vector_32" d="M65.72 166.38C65.3 166.38 64.9101 166.18 64.6801 165.83L19.1801 100.34L21.27 98.89L65.73 162.88L110.25 98.89L112.33 100.34L66.77 165.83C66.52 166.18 66.13 166.38 65.72 166.38Z" fill="#FFB10A"/>
</g>
<g id="Group_35">
<path id="Vector_33" d="M80.845 99.3567L70.7743 139.698L73.2386 140.313L83.3092 99.9719L80.845 99.3567Z" fill="#FFB10A"/>
</g>
<g id="Group_36">
<path id="Vector_34" d="M50.6259 99.4053L48.1614 100.02L64.4896 165.515L66.9541 164.901L50.6259 99.4053Z" fill="#FFB10A"/>
</g>
<g id="Group_37">
<path id="Vector_35" d="M82.09 100.89C81.72 100.89 81.36 100.73 81.12 100.44L65.72 82.05L50.38 100.43C50.12 100.74 49.7201 100.91 49.3101 100.88C48.9001 100.85 48.5299 100.62 48.3199 100.27L42.73 91.03L44.9 89.72L49.5699 97.44L64.74 79.26C64.98 78.97 65.34 78.8 65.71 78.8C66.09 78.8 66.4401 78.97 66.6801 79.25L81.86 97.38L91.74 79.45L93.96 80.68L83.1801 100.23C82.9801 100.6 82.6099 100.84 82.1899 100.88C82.1699 100.89 82.13 100.89 82.09 100.89Z" fill="#FFB10A"/>
</g>
<g id="Group_38">
<path id="Vector_36" d="M39.95 69.27H39.62C34.79 69.27 30.09 66.79 27.37 62.79L28.77 61.84C31.18 65.38 35.34 67.58 39.63 67.58H39.96C44.44 67.58 48.19 65.64 50.5 62.11L51.92 63.04C49.27 67.06 45.03 69.27 39.95 69.27Z" fill="#FFB10A"/>
</g>
<g id="Group_39">
<path id="Vector_37" d="M31.35 74.57C30.79 74.57 30.22 74.5 29.66 74.36C27.6 73.84 25.9201 72.42 25.0601 70.48L22.53 64.75L24.08 64.07L26.61 69.8C27.26 71.27 28.5199 72.33 30.0699 72.72C31.6199 73.11 33.24 72.77 34.5 71.79L39.67 67.77L40.71 69.11L35.54 73.13C34.32 74.07 32.85 74.57 31.35 74.57Z" fill="#FFAA37"/>
</g>
<g id="Group_40">
<path id="Vector_38" d="M47.38 74.57C45.88 74.57 44.4099 74.07 43.1899 73.12L38.02 69.1L39.0601 67.76L44.23 71.78C45.49 72.76 47.11 73.1 48.66 72.71C50.21 72.32 51.47 71.25 52.12 69.79L54.65 64.06L56.2 64.74L53.67 70.47C52.81 72.42 51.1399 73.83 49.0699 74.35C48.5099 74.5 47.94 74.57 47.38 74.57Z" fill="#FFB10A"/>
</g>
<g id="Group_41">
<path id="Vector_39" d="M10.53 64.56C9.19002 60.66 11.63 52.38 13.24 46.9C13.7 45.33 14.0699 44.09 14.1899 43.45C14.3599 42.57 14.53 39.6 14.72 36.16C14.96 31.85 15.27 26.4801 15.71 22.8401C15.99 20.5101 17.43 12.54 23.96 7.71999C28.21 4.57999 33.5899 3.55 39.9399 4.66C46.2299 3.57 51.52 4.56003 55.67 7.63003C62.1 12.38 63.54 20.4701 63.83 22.8401C64.27 26.4801 64.5799 31.84 64.8199 36.16C65.0099 39.6 65.18 42.57 65.35 43.45C65.48 44.12 65.87 45.46 66.33 47.02C67.89 52.34 70.26 60.39 69.13 64.19L67.51 63.71C68.49 60.39 66.12 52.32 64.71 47.5C64.22 45.83 63.8299 44.52 63.6899 43.77C63.4999 42.78 63.34 39.9 63.13 36.26C62.89 31.97 62.59 26.64 62.15 23.05C61.88 20.85 60.55 13.34 54.67 9.00002C50.87 6.20002 45.97 5.31001 40.09 6.36001C39.99 6.38001 39.89 6.38001 39.79 6.36001C33.85 5.30001 28.86 6.21005 24.97 9.09005C18.98 13.5101 17.66 20.9 17.39 23.06C16.95 26.64 16.65 31.98 16.41 36.27C16.2 39.91 16.04 42.7901 15.85 43.7801C15.71 44.5001 15.34 45.78 14.86 47.39C13.5 52.02 10.96 60.6301 12.12 64.0301L10.53 64.56Z" fill="#273773"/>
</g>
<g id="Group_42">
<path id="Vector_40" d="M39.5 56.59C31.99 56.59 22.46 47.19 22.46 36.63V27.8C22.46 27.33 22.8401 26.95 23.3101 26.95H42.6899L44.24 22.28C44.34 21.99 44.58 21.77 44.89 21.71C45.19 21.66 45.5 21.77 45.7 22L49.79 26.95H55.48C55.95 26.95 56.33 27.33 56.33 27.8V36.63C56.32 46.34 47.67 56.59 39.5 56.59ZM24.16 28.65V36.64C24.16 46.05 32.8 54.9 39.51 54.9C46.11 54.9 54.63 46.04 54.63 36.64V28.65H49.39C49.14 28.65 48.9 28.54 48.74 28.34L45.37 24.27L44.11 28.07C44 28.42 43.6701 28.65 43.3101 28.65H24.16Z" fill="#273773"/>
</g>
<g id="Group_43">
<path id="Vector_41" d="M71.9399 76.25C68.1599 69.5 60.92 66.87 56.12 65.13C51.68 63.52 46.16 61.51 46.16 55.13V53.2H47.85V55.13C47.85 59.96 51.52 61.66 56.7 63.54C61.42 65.26 69.33 68.13 73.41 75.42L71.9399 76.25Z" fill="#273773"/>
</g>
<g id="Group_44">
<path id="Vector_42" d="M4.68994 95.51H3V87C3 70.73 15.06 66.32 22.27 63.69C27.34 61.84 30.9301 60.16 30.9301 55.41V53.2H32.62V55.41C32.62 61.71 27.2 63.69 22.85 65.28C16.06 67.76 4.68994 71.91 4.68994 87V95.51Z" fill="#273773"/>
</g>
<g id="Group_45">
<path id="Vector_43" d="M39.48 44.73H38.54C38.07 44.73 37.6899 44.35 37.6899 43.88C37.6899 43.41 38.07 43.03 38.54 43.03H39.48C40.36 43.03 41.08 42.31 41.08 41.43V36.41C41.08 33.18 43.29 31.18 45.35 31.18H49.55C50.02 31.18 50.4 31.56 50.4 32.03C50.4 32.5 50.02 32.88 49.55 32.88H45.35C44.45 32.88 42.78 33.92 42.78 36.42V41.44C42.78 43.25 41.3 44.73 39.48 44.73Z" fill="#273773"/>
</g>
<g id="Group_46">
<path id="Vector_44" d="M34.3101 32.88H30.92C30.45 32.88 30.0699 32.5 30.0699 32.03C30.0699 31.56 30.45 31.18 30.92 31.18H34.3101C34.7801 31.18 35.16 31.56 35.16 32.03C35.16 32.5 34.7801 32.88 34.3101 32.88Z" fill="#273773"/>
</g>
<g id="Group_47">
<path id="Vector_45" d="M32.22 38.41C33.1368 38.41 33.88 37.6668 33.88 36.75C33.88 35.8332 33.1368 35.09 32.22 35.09C31.3032 35.09 30.5601 35.8332 30.5601 36.75C30.5601 37.6668 31.3032 38.41 32.22 38.41Z" fill="#273773"/>
</g>
<g id="Group_48">
<path id="Vector_46" d="M47.61 38.41C48.5268 38.41 49.27 37.6668 49.27 36.75C49.27 35.8332 48.5268 35.09 47.61 35.09C46.6932 35.09 45.95 35.8332 45.95 36.75C45.95 37.6668 46.6932 38.41 47.61 38.41Z" fill="#273773"/>
</g>
<g id="Group_49">
<path id="Vector_47" d="M39.77 49.93C38.45 49.93 37.1099 49.55 36.0999 48.79C35.7299 48.51 35.6599 47.9799 35.9399 47.5999C36.2199 47.2299 36.75 47.15 37.13 47.44C38.5 48.48 41.05 48.5 42.18 47.48C42.53 47.17 43.06 47.2 43.38 47.55C43.69 47.9 43.66 48.43 43.31 48.74C42.43 49.53 41.11 49.93 39.77 49.93Z" fill="#273773"/>
</g>
<g id="Group_50">
<path id="Vector_48" d="M173.5 200.03C171.55 200.03 169.19 199.94 166.3 199.74C164.28 199.59 162.32 199.44 160.46 199.29C153.94 198.77 148.31 198.32 145.36 198.77L145.11 197.1C148.25 196.62 153.7 197.05 160.6 197.6C162.46 197.75 164.41 197.9 166.43 198.05C176.87 198.79 179.98 198.02 181.78 197.09C182.05 196.93 200.71 187.49 207.33 184.2C208.32 183.71 209.13 182.32 208.66 181.32C208.34 180.65 207.56 180.19 207.12 180.11C199.83 178.83 187.77 182.08 179.79 184.24C175.52 185.39 172.44 186.23 170.9 186.23C166.99 186.23 161.78 185.22 153.49 182.85L153.96 181.22C162.09 183.54 167.16 184.53 170.91 184.53C172.22 184.53 175.53 183.64 179.36 182.6C187.97 180.27 199.77 177.09 207.42 178.44C208.37 178.6 209.64 179.39 210.21 180.6C211.13 182.54 209.83 184.86 208.1 185.71C201.26 189.11 183.03 198.34 182.6 198.57C181.08 199.36 178.87 200.03 173.5 200.03Z" fill="#273773"/>
</g>
<g id="Group_51">
<path id="Vector_49" d="M173.8 185.78L173.33 184.15C174.75 183.74 175.58 183.01 176.12 181.7C176.5 180.78 176.45 179.74 176 178.75C175.5 177.68 174.59 176.86 173.48 176.5L170.91 175.66C157.14 171.17 152.5 169.66 148.57 170.21C147.24 170.4 140.96 172.22 134.61 177.74L133.5 176.46C140.05 170.77 146.57 168.78 148.34 168.53C152.65 167.93 157.38 169.47 171.43 174.05L174 174.89C175.55 175.39 176.83 176.54 177.53 178.03C178.18 179.42 178.23 180.99 177.68 182.33C176.94 184.14 175.71 185.23 173.8 185.78Z" fill="#273773"/>
</g>
<g id="Group_52">
<path id="Vector_50" d="M147.12 204.7L145.78 203.66L147.71 201.18L134.34 189.72L135.44 188.43L149.42 200.41C149.76 200.7 149.81 201.22 149.54 201.57L147.12 204.7Z" fill="#273773"/>
</g>
<g id="Group_53">
<path id="Vector_51" d="M184.88 171.67H158.36V169.98H184.88C186.32 169.98 187.49 168.81 187.49 167.37V166.67C187.49 165.23 186.32 164.06 184.88 164.06H172.26V162.37H184.88C187.25 162.37 189.19 164.3 189.19 166.68V167.38C189.18 169.74 187.25 171.67 184.88 171.67Z" fill="#273773"/>
</g>
<g id="Group_54">
<path id="Vector_52" d="M151.95 169.13H150.26V166.48C150.26 164.95 151.08 163.52 152.41 162.75L153.26 164.21C152.45 164.68 151.95 165.54 151.95 166.47V169.13Z" fill="#273773"/>
</g>
<g id="Group_55">
<path id="Vector_53" d="M197.65 179.29H195.96V174.29C195.96 172.85 194.79 171.68 193.35 171.68H184.96V169.99H193.35C195.72 169.99 197.66 171.92 197.66 174.3V179.29H197.65Z" fill="#273773"/>
</g>
<g id="Group_56">
<path id="Vector_54" d="M162.95 133.59H160.41V135.28H162.95V133.59Z" fill="#273773"/>
</g>
<g id="Group_57">
<path id="Vector_55" d="M162.95 149.67H160.41V151.36H162.95V149.67Z" fill="#273773"/>
</g>
<g id="Group_58">
<path id="Vector_56" d="M161.55 150.36C158.9 150.36 157.17 148.59 156.69 148.03L158.62 146.38C158.84 146.63 159.99 147.88 161.67 147.82C162.54 147.79 163.95 147.41 164.29 146.49C164.5 145.92 164.33 145.08 163.88 144.5C163.36 143.83 162.59 143.68 161.39 143.48C160.11 143.27 158.51 143 157.5 141.51C156.66 140.28 156.51 138.62 157.12 137.28C158.02 135.3 160.36 134.6 162.16 134.78C164.3 134.99 165.59 136.43 166.04 137.04L164.01 138.56C163.81 138.29 163.07 137.42 161.91 137.3C160.97 137.2 159.79 137.56 159.44 138.33C159.24 138.77 159.23 139.51 159.61 140.07C160 140.64 160.67 140.77 161.82 140.96C163.12 141.18 164.74 141.45 165.9 142.93C166.91 144.22 167.22 145.96 166.69 147.37C165.91 149.46 163.56 150.28 161.78 150.34C161.69 150.36 161.62 150.36 161.55 150.36Z" fill="#273773"/>
</g>
<g id="Group_59">
<path id="Vector_57" d="M162.1 164.06C150.43 164.06 140.94 154.57 140.94 142.9C140.94 131.23 150.43 121.74 162.1 121.74C173.77 121.74 183.26 131.23 183.26 142.9C183.26 154.57 173.77 164.06 162.1 164.06ZM162.1 123.43C151.37 123.43 142.64 132.16 142.64 142.89C142.64 153.62 151.37 162.35 162.1 162.35C172.83 162.35 181.56 153.62 181.56 142.89C181.56 132.16 172.83 123.43 162.1 123.43Z" fill="#273773"/>
</g>
</g>
</svg>
