<svg width="228" height="229" viewBox="0 0 228 229" fill="none" xmlns="http://www.w3.org/2000/svg">
<g id="Group">
<g id="Group_2">
<path id="Vector" d="M40.57 98.73H15.23C10.48 98.73 6.62 94.87 6.62 90.12V89.55C6.62 89.04 7.03001 88.63 7.54001 88.63H40.58V90.47H8.47C8.65 94.04 11.62 96.89 15.24 96.89H40.58V98.73H40.57Z" fill="white" stroke="white" stroke-miterlimit="10"/>
</g>
<g id="Group_3">
<path id="Vector_2" d="M13.0399 84.04H11.2V26.76C11.2 23.93 13.4999 21.63 16.3299 21.63H18.5399V23.47H16.3299C14.5099 23.47 13.0399 24.95 13.0399 26.76V84.04Z" fill="white" stroke="white" stroke-miterlimit="10"/>
</g>
<g id="Group_4">
<path id="Vector_3" d="M109.4 71.19H107.56V26.76C107.56 24.94 106.08 23.47 104.27 23.47H102.06V21.63H104.27C107.1 21.63 109.4 23.93 109.4 26.76V71.19Z" fill="white" stroke="white" stroke-miterlimit="10"/>
</g>
<g id="Group_5">
<path id="Vector_4" d="M24.97 89.55H23.13V2.37C23.13 1.86 23.54 1.45001 24.05 1.45001H97.47C97.98 1.45001 98.39 1.86 98.39 2.37V73.04H96.55V3.28998H24.97V89.55Z" fill="white" stroke="white" stroke-miterlimit="10"/>
</g>
<g id="Group_6">
<path id="Vector_5" d="M41.4999 15.21H39.6599V18.88H41.4999V15.21Z" fill="#FFB10A"/>
</g>
<g id="Group_7">
<path id="Vector_6" d="M41.4999 36.32H39.6599V39.99H41.4999V36.32Z" fill="#FFB10A"/>
</g>
<g id="Group_8">
<path id="Vector_7" d="M40.48 36.78C37.41 36.78 35.39 34.71 34.84 34.07L36.23 32.87C36.54 33.23 38.2 35.03 40.66 34.94C41.77 34.9 44.02 34.4 44.62 32.81C44.98 31.86 44.72 30.54 43.99 29.61C43.13 28.51 41.86 28.3 40.39 28.05C38.81 27.79 37.03 27.49 35.91 25.84C34.99 24.49 34.82 22.61 35.48 21.15C36.48 18.95 39.13 18.17 41.17 18.38C43.61 18.63 45.09 20.28 45.61 20.98L44.14 22.08C43.84 21.69 42.74 20.38 40.98 20.21C39.56 20.07 37.73 20.62 37.14 21.92C36.74 22.8 36.85 23.99 37.42 24.81C38.1 25.81 39.3 26.01 40.69 26.24C42.3 26.51 44.13 26.81 45.43 28.48C46.56 29.93 46.91 31.88 46.33 33.45C45.46 35.79 42.76 36.7 40.72 36.78C40.65 36.77 40.56 36.78 40.48 36.78Z" fill="#FFB10A"/>
</g>
<g id="Group_9">
<path id="Vector_8" d="M83.71 16.13H54.34V17.97H83.71V16.13Z" fill="#FFB10A"/>
</g>
<g id="Group_10">
<path id="Vector_9" d="M83.7 26.23H77.28V28.07H83.7V26.23Z" fill="#FFB10A"/>
</g>
<g id="Group_11">
<path id="Vector_10" d="M70.86 26.23H54.34V28.07H70.86V26.23Z" fill="#FFB10A"/>
</g>
<g id="Group_12">
<path id="Vector_11" d="M83.71 37.24H54.34V39.08H83.71V37.24Z" fill="#FFB10A"/>
</g>
<g id="Group_13">
<path id="Vector_12" d="M69.0199 79.45H35.9799C35.4699 79.45 35.0599 79.04 35.0599 78.53V48.24H36.8999V77.61H69.0199V79.45Z" fill="#EF5A28" stroke="#EF5A28" stroke-miterlimit="10"/>
</g>
<g id="Group_14">
<path id="Vector_13" d="M52.4999 72.11H43.3199C42.8099 72.11 42.3999 71.7 42.3999 71.19V64.77C42.3999 64.26 42.8099 63.85 43.3199 63.85H52.4999C53.0099 63.85 53.4199 64.26 53.4199 64.77V71.19C53.4199 71.7 53.0099 72.11 52.4999 72.11ZM44.2399 70.28H51.5799V65.69H44.2399V70.28Z" fill="#EF5A28" stroke="#EF5A28" stroke-miterlimit="10"/>
</g>
<g id="Group_15">
<path id="Vector_14" d="M69.0199 72.11H59.8399C59.3299 72.11 58.9199 71.7 58.9199 71.19V59.26C58.9199 58.75 59.3299 58.34 59.8399 58.34H69.0199C69.5299 58.34 69.9399 58.75 69.9399 59.26V71.19C69.9399 71.7 69.5299 72.11 69.0199 72.11ZM60.7599 70.28H68.0999V60.18H60.7599V70.28Z" fill="#EF5A28" stroke="#EF5A28" stroke-miterlimit="10"/>
</g>
<g id="Group_16">
<path id="Vector_15" d="M84.62 72.11H75.44C74.93 72.11 74.52 71.7 74.52 71.19V52.84C74.52 52.33 74.93 51.92 75.44 51.92H84.62C85.13 51.92 85.54 52.33 85.54 52.84V71.19C85.54 71.7 85.13 72.11 84.62 72.11ZM76.36 70.28H83.7V53.76H76.36V70.28Z" fill="#EF5A28" stroke="#EF5A28" stroke-miterlimit="10"/>
</g>
<g id="Group_17">
<g id="Group_18">
<path id="Vector_16" d="M15.8 117.08H13.96V120.75H15.8V117.08Z" fill="white" stroke="white" stroke-miterlimit="10"/>
</g>
<g id="Group_19">
<path id="Vector_17" d="M15.8 128.09H13.96V131.76H15.8V128.09Z" fill="white" stroke="white" stroke-miterlimit="10"/>
</g>
<g id="Group_20">
<path id="Vector_18" d="M11.2 123.51H7.53003V125.35H11.2V123.51Z" fill="white" stroke="white" stroke-miterlimit="10"/>
</g>
<g id="Group_21">
<path id="Vector_19" d="M22.2201 123.51H18.55V125.35H22.2201V123.51Z" fill="white" stroke="white" stroke-miterlimit="10"/>
</g>
</g>
<g id="Group_22">
<path id="Vector_20" d="M221.37 205.18H147.95V207.02H221.37V205.18Z" fill="white" stroke="white" stroke-miterlimit="10"/>
</g>
<g id="Group_23">
<path id="Vector_21" d="M226.88 214.36H136.02V216.2H226.88V214.36Z" fill="white" stroke="white" stroke-miterlimit="10"/>
</g>
<g id="Group_24">
<path id="Vector_22" d="M214.03 149.2H212.19V205.18H214.03V149.2Z" fill="white" stroke="white" stroke-miterlimit="10"/>
</g>
<g id="Group_25">
<path id="Vector_23" d="M201.18 149.2H199.34V206.1H201.18V149.2Z" fill="white" stroke="white" stroke-miterlimit="10"/>
</g>
<g id="Group_26">
<path id="Vector_24" d="M180.07 149.2H178.23V205.18H180.07V149.2Z" fill="white" stroke="white" stroke-miterlimit="10"/>
</g>
<g id="Group_27">
<path id="Vector_25" d="M167.22 149.2H165.38V206.1H167.22V149.2Z" fill="white" stroke="white" stroke-miterlimit="10"/>
</g>
<g id="Group_28">
<path id="Vector_26" d="M146.12 149.2H144.28V195.09H146.12V149.2Z" fill="white" stroke="white" stroke-miterlimit="10"/>
</g>
<g id="Group_29">
<path id="Vector_27" d="M201.18 139.11H147.95V140.95H201.18V139.11Z" fill="#EF5A28" stroke="#EF5A28" stroke-miterlimit="10"/>
</g>
<g id="Group_30">
<path id="Vector_28" d="M217.7 150.12H144.28V148.28H216.78V140.94H209.44V139.1H217.7C218.21 139.1 218.62 139.51 218.62 140.02V149.2C218.61 149.71 218.2 150.12 217.7 150.12Z" fill="#EF5A28" stroke="#EF5A28" stroke-miterlimit="10"/>
</g>
<g id="Group_31">
<path id="Vector_29" d="M220.12 132.78L173.08 107.58L146.05 122.06L145.18 120.44L172.65 105.73C172.92 105.58 173.25 105.58 173.52 105.73L220.99 131.16L220.12 132.78Z" fill="white" stroke="white" stroke-miterlimit="10"/>
</g>
<g id="Group_32">
<path id="Vector_30" d="M110.58 122.8C119.52 123.14 127.14 128.49 130.83 136.05C131.28 136.98 132.39 136.58 132.42 135.48L133.28 101.65C127.77 101.44 123.46 95.5 123.64 88.38L99.29 87.45C99.11 94.57 94.5 100.17 88.99 99.96L88.13 133.84C88.1 134.94 89.19 135.42 89.69 134.53C93.73 127.24 101.63 122.46 110.58 122.8ZM106.73 106.52C106.8 103.67 108.65 101.43 110.85 101.52C113.05 101.6 114.78 103.98 114.71 106.83C114.64 109.68 112.79 111.92 110.59 111.83C108.39 111.75 106.66 109.37 106.73 106.52Z" fill="#FFB10A"/>
</g>
<g id="Group_33">
<path id="Vector_31" d="M87.17 171.7L86.88 183.1C92.39 183.31 96.7 189.25 96.52 196.37L120.87 197.3C121.05 190.18 125.66 184.58 131.17 184.79L132.03 150.96C132.06 149.86 130.97 149.38 130.48 150.27C126.42 157.53 118.54 162.28 109.6 161.94C104.52 161.75 99.86 159.93 96.1 157.01C95.11 160.86 91.15 168.66 87.17 171.7ZM109.2 174.37C111.4 174.44 113.14 176.81 113.09 179.66C113.03 182.51 111.2 184.76 109 184.69C106.8 184.62 105.06 182.25 105.11 179.41C105.17 176.55 107 174.3 109.2 174.37Z" fill="#FFB10A"/>
</g>
<g id="Group_34">
<path id="Vector_32" d="M127.93 143.57C127.9 144.73 127.73 146.74 126.09 146.97L124.38 146.93C124.04 148.39 123.19 149.95 121.86 151.3C120.85 152.32 119.66 152.85 118.3 153.11C117.84 153.2 117.55 153.02 117.17 152.7C116.7 152.3 115.5 149.22 117.91 148.6C119.85 148.11 120.75 146.46 120.82 143.53C120.86 142 120.47 140.76 119.74 139.86C119.02 138.96 118.06 138.51 116.86 138.48C115.54 138.45 114.55 138.93 113.88 139.96C113.41 140.68 112.94 142.05 112.5 144.02C111.29 149.34 108.91 152 105.45 151.91C103.51 151.86 101.87 151.44 100.6 150.16C99.3999 148.95 98.4399 146.94 98.3099 146.28L96.42 146.23C94.58 146.24 94.7199 143.9 94.7499 142.74C94.7799 141.58 95.4799 140.64 96.5599 140.64L98.48 140.69C98.8 139.16 99.6499 137.11 100.65 135.9C101.38 135.03 102.11 134.71 103.03 134.44C103.54 134.29 104.05 134.37 104.49 134.69C105.08 135.12 105.43 135.91 105.41 136.74C105.39 137.72 104.88 138.57 104.15 138.84C103.64 139.03 103.2 139.38 102.84 139.87C102.27 140.65 101.97 141.65 101.94 142.85C101.91 144.18 102.22 145.26 102.86 146.07C103.5 146.87 104.31 147.27 105.35 147.29C106.52 147.32 107.38 146.55 107.99 144.93C108.42 143.37 108.86 141.78 109.28 140.19C110.7 135.78 113.14 133.59 116.54 133.68C118.57 133.73 120.33 134.34 121.76 135.68C123.22 137.04 124.09 138.57 124.34 141.34L126.23 141.39C127.37 141.37 127.96 142.41 127.93 143.57Z" fill="#1B75BA"/>
</g>
<g id="Group_35">
<path id="Vector_33" d="M32.77 227.55L41.83 217.71L5.39001 184.94L2.26001 188.15L32.77 227.55Z" fill="#FFB10A"/>
</g>
<g id="Group_36">
<path id="Vector_34" d="M33.28 228.22C33.26 228.22 33.24 228.22 33.23 228.22C32.83 228.2 32.46 228.02 32.21 227.71L1.18998 189.02C0.749975 188.48 0.789972 187.69 1.27997 187.2L4.40998 183.99C4.92998 183.46 5.76998 183.43 6.31998 183.93L42.76 216.7C43.04 216.95 43.2 217.3 43.21 217.66C43.23 218.03 43.09 218.39 42.84 218.66L34.29 227.79C34.02 228.06 33.66 228.22 33.28 228.22ZM4.08997 188.24L33.35 224.74L39.86 217.8L5.44999 186.85L4.08997 188.24Z" fill="white"/>
</g>
<g id="Group_37">
<path id="Vector_35" d="M9.75992 187.48L7.41992 186.03L11.4299 179.59C14.2099 175.12 16.4499 170.32 18.0799 165.32L24.5999 145.36C25.7799 141.74 28.1999 138.63 31.4199 136.6L50.0299 125.19L51.4699 127.54L32.8699 138.94C30.2099 140.62 28.1999 143.21 27.2099 146.21L20.6899 166.17C18.9899 171.38 16.6599 176.38 13.7599 181.04L9.75992 187.48Z" fill="white"/>
</g>
<g id="Group_38">
<path id="Vector_36" d="M40.2299 216.51L38.4299 214.43L44.5899 209.11C44.6499 209.05 44.7299 209 44.7999 208.96C46.5499 207.95 48.28 207.27 49.95 206.62C53.95 205.06 58.0899 203.44 63.7199 196.87C66.3899 193.76 69.44 187.62 71.89 182.69C73.5 179.45 74.8999 176.65 76.0099 174.98C78.7599 170.85 86.2099 159.27 86.2799 159.16C88.3599 156.32 87.8899 152.43 85.2499 150.24C83.8499 149.08 82.0899 148.56 80.2799 148.79C78.4699 149.02 76.8899 149.95 75.8299 151.43C69.8299 159.45 60.3799 169.81 57.0899 171.97C54.9699 173.36 50.6699 174.14 48.0999 171.96C44.4199 168.84 46.0099 163.52 47.5299 159.79L50.0799 160.83C47.6099 166.9 48.6799 168.85 49.8799 169.87C51.4299 171.19 54.4199 170.45 55.5799 169.68C58.3099 167.89 67.5399 157.93 73.6199 149.8C75.0999 147.75 77.42 146.38 79.95 146.06C82.48 145.74 85.0599 146.49 87.0199 148.13C90.7799 151.26 91.4499 156.79 88.5599 160.73C88.5299 160.78 81.0799 172.37 78.3099 176.52C77.2999 178.04 75.8699 180.9 74.3699 183.93C71.7199 189.26 68.7099 195.31 65.8199 198.68C59.7399 205.78 55.0799 207.6 50.9599 209.21C49.3499 209.84 47.8299 210.43 46.2999 211.31L40.2299 216.51Z" fill="white"/>
</g>
<g id="Group_39">
<path id="Vector_37" d="M64.9299 149.69L59.1999 86.19C59.1699 85.83 59.2799 85.46 59.5099 85.18C59.7399 84.9 60.0799 84.72 60.4399 84.69L80.2199 82.9L80.4699 85.64L62.0599 87.3L67.6699 149.43L64.9299 149.69Z" fill="white"/>
</g>
<g id="Group_40">
<path id="Vector_38" d="M138.64 206.88C138.61 206.88 78.2899 205.44 78.2899 205.44C77.5299 205.42 76.9299 204.79 76.9499 204.03L77.2699 190.68L80.0199 190.75L79.7299 202.73L137.29 204.1L140.19 82.46L82.6299 81.09L81.2699 138.4L78.5199 138.33L79.92 79.64C79.94 78.88 80.5499 78.26 81.3299 78.3L141.64 79.74C142.01 79.75 142.35 79.9 142.6 80.17C142.85 80.43 142.99 80.79 142.98 81.15L140.02 205.55C140 206.29 139.39 206.88 138.64 206.88Z" fill="white"/>
</g>
<g id="Group_41">
<path id="Vector_39" d="M54.77 161.28L44.14 92.72C44.02 91.97 44.54 91.27 45.29 91.15L60.14 88.85L60.56 91.57L47.07 93.66L57.49 160.86L54.77 161.28Z" fill="white"/>
</g>
<g id="Group_42">
<path id="Vector_40" d="M196.77 22.63L195.13 21.81L201.02 10.08L195.59 8.87L195.99 7.08002L202.57 8.53998C202.85 8.59998 203.08 8.78998 203.2 9.03998C203.32 9.29998 203.32 9.58998 203.19 9.84998L196.77 22.63Z" fill="white" stroke="white" stroke-miterlimit="10"/>
</g>
<g id="Group_43">
<path id="Vector_41" d="M188.82 98.32C166.66 98.32 157.57 86.94 155.97 84.66C152.23 79.32 150.55 71.39 151.67 64.46L153.48 64.75C152.43 71.24 154 78.64 157.47 83.61C161.63 89.55 172.33 96.49 188.81 96.49C209.13 96.49 218.6 86.6 221.02 83.57C225.85 77.52 226.16 68.23 224.4 62.16C222.18 54.51 217.12 50.39 210.71 45.18L209.29 44.02C205.95 41.29 199.87 35.38 196.84 30.3L198.42 29.36C201.33 34.24 207.21 39.95 210.46 42.6L211.88 43.76C218.54 49.17 223.8 53.45 226.18 61.65C228.07 68.16 227.71 78.16 222.48 84.72C219.91 87.9 209.96 98.32 188.82 98.32Z" fill="white" stroke="white" stroke-miterlimit="10"/>
</g>
<g id="Group_44">
<path id="Vector_42" d="M189.47 82.33C189.29 82.33 189.11 82.33 188.92 82.32L188.97 80.49C189.84 80.51 190.72 80.47 191.57 80.36L191.8 82.18C191.04 82.28 190.26 82.33 189.47 82.33ZM186.05 82.01C185.1 81.83 184.16 81.58 183.26 81.25L183.88 79.52C184.7 79.81 185.54 80.04 186.4 80.2L186.05 82.01ZM194.65 81.6L194.14 79.84C194.97 79.6 195.79 79.29 196.58 78.92L197.36 80.58C196.48 80.98 195.57 81.33 194.65 81.6ZM180.62 80.07C179.78 79.61 178.96 79.08 178.2 78.49L179.32 77.04C180.01 77.57 180.74 78.05 181.5 78.47L180.62 80.07ZM199.87 79.14L198.84 77.62C199.56 77.13 200.24 76.58 200.87 75.99L202.13 77.33C201.42 77.99 200.66 78.6 199.87 79.14ZM176.05 76.55C175.39 75.85 174.78 75.09 174.23 74.3L175.74 73.26C176.23 73.98 176.78 74.66 177.38 75.29L176.05 76.55ZM204.07 75.19L202.62 74.06C203.15 73.37 203.64 72.64 204.06 71.88L205.67 72.77C205.2 73.62 204.67 74.43 204.07 75.19ZM172.78 71.8C172.36 70.93 172.02 70.02 171.74 69.1L173.5 68.58C173.75 69.41 174.06 70.23 174.43 71.01L172.78 71.8ZM206.86 70.14L205.13 69.51C205.43 68.7 205.66 67.85 205.82 67L207.62 67.35C207.45 68.3 207.19 69.23 206.86 70.14ZM207.95 64.47L206.12 64.41C206.13 64.22 206.13 64.03 206.13 63.84C206.13 63.16 206.09 62.48 206.01 61.81L207.83 61.59C207.92 62.33 207.97 63.09 207.97 63.84C207.97 64.05 207.96 64.26 207.95 64.47ZM205.49 59.25C205.25 58.42 204.94 57.59 204.58 56.81L206.24 56.03C206.65 56.9 206.99 57.81 207.25 58.74L205.49 59.25ZM203.3 54.55C202.81 53.83 202.27 53.14 201.68 52.51L203.02 51.26C203.68 51.96 204.28 52.73 204.82 53.53L203.3 54.55ZM199.76 50.74C199.08 50.2 198.35 49.72 197.59 49.29L198.49 47.69C199.33 48.16 200.14 48.7 200.9 49.3L199.76 50.74ZM195.22 48.2C194.41 47.9 193.56 47.66 192.71 47.5L193.06 45.7C194 45.89 194.94 46.15 195.85 46.48L195.22 48.2Z" fill="#FFB10A"/>
</g>
<g id="Group_45">
<path id="Vector_43" d="M194.47 16.63L192.69 16.1599L195.28 6.26999L177.42 8.09L179.08 11.8L177.4 12.55L175.23 7.67997C175.11 7.40997 175.13 7.09995 175.27 6.84995C175.42 6.59995 175.68 6.43 175.97 6.4L196.41 4.30997C196.71 4.26997 197 4.39998 197.2 4.62998C197.4 4.85998 197.47 5.17 197.39 5.46L194.47 16.63Z" fill="white" stroke="white" stroke-miterlimit="10"/>
</g>
<g id="Group_46">
<path id="Vector_44" d="M185.57 31.73H121.33V33.57H185.57V31.73Z" fill="#EF5A28" stroke="#EF5A28" stroke-miterlimit="10"/>
</g>
<g id="Group_47">
<path id="Vector_45" d="M185.57 24.39H121.33V26.23H185.57V24.39Z" fill="#EF5A28" stroke="#EF5A28" stroke-miterlimit="10"/>
</g>
<g id="Group_48">
<path id="Vector_46" d="M182.29 62.02H125.53C122.71 62.02 120.41 59.72 120.41 56.9V20.33C120.41 17.51 122.71 15.21 125.53 15.21H182.29C185.11 15.21 187.41 17.51 187.41 20.33V56.9C187.41 59.72 185.12 62.02 182.29 62.02ZM125.53 17.05C123.72 17.05 122.25 18.52 122.25 20.33V56.9C122.25 58.71 123.72 60.18 125.53 60.18H182.29C184.1 60.18 185.57 58.71 185.57 56.9V20.33C185.57 18.52 184.1 17.05 182.29 17.05H125.53Z" fill="white" stroke="white" stroke-miterlimit="10"/>
</g>
<g id="Group_49">
<path id="Vector_47" d="M146.11 50.09H128.67C128.16 50.09 127.75 49.68 127.75 49.17V41.83C127.75 41.32 128.16 40.91 128.67 40.91H146.11C146.62 40.91 147.03 41.32 147.03 41.83V49.17C147.03 49.68 146.62 50.09 146.11 50.09ZM129.59 48.25H145.19V42.74H129.59V48.25Z" fill="#FFB10A"/>
</g>
<g id="Group_50">
<path id="Vector_48" d="M178.23 40.91H162.63V42.75H178.23V40.91Z" fill="#FFB10A"/>
</g>
<g id="Group_51">
<path id="Vector_49" d="M171.81 48.25H162.63V50.09H171.81V48.25Z" fill="#FFB10A"/>
</g>
<g id="Group_52">
<path id="Vector_50" d="M196.87 30.81H192V28.97H196.87C198.39 28.97 199.62 27.74 199.62 26.22C199.62 24.7 198.39 23.47 196.87 23.47H192V21.63H196.87C199.4 21.63 201.46 23.69 201.46 26.22C201.46 28.76 199.4 30.81 196.87 30.81Z" fill="white" stroke="white" stroke-miterlimit="10"/>
</g>
<g id="Group_53">
<path id="Vector_51" d="M216.88 140.63L172.76 117.41L149.92 129.52L149.06 127.9L172.33 115.57C172.6 115.43 172.92 115.43 173.19 115.57L217.74 139.02L216.88 140.63Z" fill="#EF5A28" stroke="#EF5A28" stroke-miterlimit="10"/>
</g>
</g>
</svg>
